<svg xmlns="http://www.w3.org/2000/svg" viewBox="0 0 130.01 108.93"><defs><style>.cls-1{fill:#fa5f7f;stroke:#000;stroke-miterlimit:10;stroke-width:3.16px;}</style></defs><title>资源 1</title><g id="图层_2" data-name="图层 2"><g id="图层_1-2" data-name="图层 1"><path class="cls-1" d="M65,105.6Q53.37,84,18.06,62.05,1.57,51.82,1.58,35.77A37.68,37.68,0,0,1,3.92,22.63a33,33,0,0,1,7-11A35.2,35.2,0,0,1,21.18,4.14,28.68,28.68,0,0,1,33.27,1.58,28.67,28.67,0,0,1,45.35,4.14,33.73,33.73,0,0,1,55.7,11.6a32.9,32.9,0,0,1,6.91,11c1.56,4,2.34,5.21,2.34,10,0-4.75.81-6,2.45-10a33.06,33.06,0,0,1,6.91-11A33.65,33.65,0,0,1,84.67,4.14a29.78,29.78,0,0,1,24.16,0,35.2,35.2,0,0,1,10.25,7.46,33,33,0,0,1,7,11,37.68,37.68,0,0,1,2.34,13.14Q128.43,52,112,62.05,76.64,84,65,105.6Z"/></g></g></svg>