<svg xmlns="http://www.w3.org/2000/svg" viewBox="0 0 288.12 122.49"><defs><style>.cls-1{fill:none;stroke:#fa5f7f;stroke-linecap:round;stroke-linejoin:round;stroke-width:3.56px;}.cls-2{isolation:isolate;}.cls-3{fill:#50404b;}.cls-4{fill:#fa5f7f;}.cls-5{fill:#fff;}</style></defs><title>资源 1</title><g id="图层_2" data-name="图层 2"><g id="图层_1-2" data-name="图层 1"><polyline class="cls-1" points="286.33 19.09 282.71 120.71 5.27 120.71 10.77 12.68"/><g class="cls-2"><polygon class="cls-3" points="5.95 3.61 18.5 19.5 16.26 110.57 3.72 94.67 5.95 3.61"/><polygon class="cls-3" points="261.61 3.61 274.16 19.5 18.5 19.5 5.95 3.61 261.61 3.61"/><polygon class="cls-4" points="259.38 94.67 271.93 110.57 16.26 110.57 3.72 94.67 259.38 94.67"/><polygon class="cls-4" points="261.61 3.61 274.16 19.5 271.93 110.57 259.38 94.67 261.61 3.61"/><polygon class="cls-4" points="261.61 3.61 259.38 94.67 3.72 94.67 5.95 3.61 261.61 3.61"/><polygon class="cls-3" points="262.92 98.28 275.46 114.17 12.55 114.17 0 98.28 262.92 98.28"/><polygon class="cls-3" points="265.33 0 277.88 15.9 275.46 114.17 262.92 98.28 265.33 0"/><path class="cls-3" d="M2.41,0H265.33l-2.41,98.28H0Zm257,94.67,2.23-91.06H6L3.72,94.67H259.38"/></g><path class="cls-5" d="M79.05,48.08,78.92,53h-9.2l3.72,7.31A2.78,2.78,0,0,0,75.77,62h2.56l-.12,4.59H72.68c-1.27,0-2.35-.79-3.27-2.39L66,58.45l-3.74,5.77a4.3,4.3,0,0,1-4,2.39H54L54.14,62h1.19a3,3,0,0,0,2.25-1.19L62.39,53H54.55l.13-4.75h8.53l.27-9.69H55.8l.14-4.75h7.84l.13-4.92h6.14l-.14,4.92h8.86l-.39,14.27Zm-6.64.17.27-9.85H69.61l-.27,9.85h3.07"/><polygon class="cls-5" points="55.06 34.66 54.91 40.09 53.55 40.09 52.79 67.44 47 67.44 47.75 40.09 46.39 40.09 45.69 65.75 39.72 65.75 40.7 30.24 46.66 30.24 46.54 34.83 48.07 34.83 48.24 28.71 54.03 28.71 53.87 34.66 55.06 34.66"/><path class="cls-5" d="M118.3,62.71l.39,0h3.06l-.11,4.25h-5.45l-1,0c-3.17,0-4.51-1-4-3.09L111,59h-3.58l.13-4.93h3.41l-.09-15.12h-2.9l.13-4.58h2.56l-.2-5.61h5.63l0,5.61h.51l.28,0c.59,0,.85-.35.77-1l.09-3.06h4.93l-.15,5.44c.24,2.18-.72,3.28-2.87,3.28a8.24,8.24,0,0,1-1-.06h-2.39l.1,15.12h.33a1.06,1.06,0,0,0,.24,0c.51,0,.73-.34.64-1l.28-10h4.26l-.29,10.54c.12,3.63-1.29,5.45-4.21,5.45l-.54,0h-.51l-.06,2.21C116.49,62.19,117.08,62.71,118.3,62.71Z"/><polygon class="cls-5" points="95.11 53 91.19 53 91.22 51.65 95.14 51.65 95.11 53"/><polygon class="cls-5" points="94.83 63.03 90.91 63.03 90.95 61.67 94.87 61.67 94.83 63.03"/><polygon class="cls-5" points="94.97 57.93 91.05 57.93 91.08 56.74 95 56.74 94.97 57.93"/><path class="cls-5" d="M101.42,46.38l.31,1.19h4.77l-.11,4.08h-4.78l0,1.35h4.77l-.1,3.74h-4.78l0,1.19h4.61l-.11,3.74h-4.6l0,1.36h4.77L106,66.42H90.81l0,.85h-6.3l.4-14.6H83.53l.11-4.08h.85l.28,0a1.28,1.28,0,0,0,1.28-1l.72-1.19h5.28l-.37,1.19h3.57L95,46.38Z"/><polygon class="cls-5" points="90.37 45.36 90.71 33.13 84.07 33.13 84.19 28.89 95.43 28.89 94.98 45.36 90.37 45.36"/><polygon class="cls-5" points="89.87 39.25 86.62 39.25 84.22 33.8 87.63 33.8 88.77 35.68 89.97 35.68 89.87 39.25"/><polygon class="cls-5" points="90.02 39.92 87.48 45.36 84.07 45.36 84.17 41.62 85.88 41.62 86.6 39.92 90.02 39.92"/><polygon class="cls-5" points="101.62 45.36 101.96 33.13 96.51 33.13 96.63 28.71 106.85 28.71 106.39 45.36 101.62 45.36"/><polygon class="cls-5" points="97.46 41.62 98.02 39.92 101.43 39.92 99.24 45.36 95.65 45.36 95.76 41.62 97.46 41.62"/><polygon class="cls-5" points="101.28 39.25 98.04 39.25 95.8 33.8 99.39 33.8 100.18 35.68 101.38 35.68 101.28 39.25"/><path class="cls-5" d="M164.89,31.09h1.19L166,35.51h-4.42a6.89,6.89,0,0,1-1.06.09q-3.14,0-2.59-3.83l.08-2.88h6l0,1.18c-.12.69.12,1,.72,1A1.47,1.47,0,0,0,164.89,31.09Z"/><path class="cls-5" d="M155.59,28.37l-.27,9.69h10.56l-.14,5.1H155.18L154.88,54h3.75a.93.93,0,0,0,1.05-1l.21-7.81h5.63l-.27,9.68q0,4.1-4.35,4.09h-6.15l-.06,2c-.12.8.21,1.21,1,1.21l.32,0h9l-.13,4.59H153a10.24,10.24,0,0,1-1.2.07q-4.5,0-3.61-4.83l.09-3.06h-2.72l.13-4.93h2.72l.3-10.86h-6.81l-.1,3.73h4.09l-.15,5.61h-4.09l-.27,9.68q.47,4.83-4.45,4.83a12.27,12.27,0,0,1-1.31-.07h-8l.13-4.76H134a.93.93,0,0,0,1.05-1l.15-5.6-2.44,2a3.61,3.61,0,0,1-2.06.68h-4.6l.14-4.93h1.36a2.38,2.38,0,0,0,1.55-.84l6.27-4.76.12-4.58H126.9l.14-5.1h8.68l.08-2.89h-8.18l.15-5.1h11.07c.69,0,1-.28,1-.85l0-.85h6l-.07,2.21c.14,3.08-.95,4.61-3.22,4.61l-.48,0L142,38.06h6.81l.27-9.69Z"/><path class="cls-5" d="M193.32,62.51h15.51l-.13,4.76H191c-2.71-.11-4.09-1.75-4.12-4.92l.93-33.64h21.81L209,50.63c-.09,3.06-1.55,4.64-4.4,4.76H192.67l-.16,5.94C192.48,62.12,192.75,62.51,193.32,62.51Zm8.13-28.87L201,50.46h2.22c.33,0,.51-.23.52-.68l.45-16.14h-2.72m-8.18,0-.46,16.64h2.72L196,33.64h-2.72"/><path class="cls-5" d="M170.07,65.57l1-37.2h15.17l-.91,33q-.12,4.24-5.06,4.24Zm6.51-32.27L175.81,61h3.07a1.77,1.77,0,0,0,.32,0q.86,0,.72-.87l.74-26.84h-4.08"/><polygon class="cls-5" points="221.04 33.64 224.79 33.64 224.49 44.51 223.16 55.72 221.45 55.72 220.74 44.51 221.04 33.64"/><polygon class="cls-5" points="220.22 63.36 220.33 59.46 224.08 59.46 223.97 63.36 220.22 63.36"/></g></g></svg>