<svg xmlns="http://www.w3.org/2000/svg" xmlns:xlink="http://www.w3.org/1999/xlink" viewBox="0 0 291.58 119.59"><defs><style>.cls-1,.cls-2{fill:none;}.cls-2{stroke:#fa5f7f;stroke-linecap:round;stroke-linejoin:round;stroke-width:3.56px;}.cls-3{clip-path:url(#clip-path);}.cls-4{isolation:isolate;}.cls-5{fill:#725465;}.cls-6{fill:#d85272;}.cls-7{fill:#f9dce3;}.cls-8{fill:#50404b;}</style><clipPath id="clip-path" transform="translate(-7.24 -12.54)"><polygon class="cls-1" points="281.06 6.41 277.44 108.03 21.1 108.03 0 108.03 5.49 0 281.06 6.41"/></clipPath></defs><title>资源 4</title><g id="图层_2" data-name="图层 2"><g id="图层_1-2" data-name="图层 1"><polyline class="cls-2" points="282.85 1.78 279.22 103.4 1.78 103.4 3.09 80.89"/><g class="cls-3"><g class="cls-4"><polygon class="cls-5" points="19.65 9.01 32.19 24.91 29.96 115.98 17.41 100.08 19.65 9.01"/><polygon class="cls-5" points="275.32 9.01 287.87 24.91 32.19 24.91 19.65 9.01 275.32 9.01"/><polygon class="cls-6" points="273.08 100.08 285.63 115.98 29.96 115.98 17.41 100.08 273.08 100.08"/><polygon class="cls-6" points="275.32 9.01 287.87 24.91 285.63 115.98 273.08 100.08 275.32 9.01"/><polygon class="cls-6" points="275.32 9.01 273.08 100.08 17.41 100.08 19.65 9.01 275.32 9.01"/><polygon class="cls-5" points="276.62 103.69 289.17 119.59 26.25 119.59 13.71 103.69 276.62 103.69"/><polygon class="cls-5" points="279.03 5.42 291.58 21.31 289.17 119.59 276.62 103.69 279.03 5.42"/><path class="cls-5" d="M23.36,18H286.27l-2.41,98.27H20.94Zm257,94.67,2.24-91.07H26.89l-2.24,91.07H280.32" transform="translate(-7.24 -12.54)"/></g><polygon class="cls-7" points="68.76 40.07 68.61 45.51 67.25 45.51 66.5 72.86 60.7 72.86 61.46 45.51 60.1 45.51 59.39 71.16 53.42 71.16 54.41 35.66 60.37 35.66 60.24 40.24 61.77 40.24 61.94 34.13 67.74 34.13 67.57 40.07 68.76 40.07"/><path class="cls-7" d="M100,66,99.86,71h-9.2l3.72,7.3A2.78,2.78,0,0,0,96.72,80h2.55l-.13,4.58H93.6c-1.25,0-2.33-.79-3.25-2.39l-3.42-5.78L83.2,82.17a4.29,4.29,0,0,1-4,2.39H75L75.08,80h1.19a3.05,3.05,0,0,0,2.25-1.19L83.34,71H75.5l.13-4.76h8.51l.27-9.68H76.75l.13-4.76h7.83l.14-4.92H91l-.13,4.92h8.86L99.31,66Zm-6.66.17.28-9.85H90.55l-.27,9.85h3.06" transform="translate(-7.24 -12.54)"/><path class="cls-7" d="M139.24,80.66l.39,0h3.07l-.12,4.25h-5.45l-1,0q-4.76,0-4-3.08l-.21-4.93h-3.58l.14-4.93h3.4l-.09-15.12h-2.9l.13-4.58h2.55l-.18-5.61H137l0,5.61h.51l.27,0c.6,0,.86-.35.78-1l.08-3.06h4.94l-.15,5.43c.24,2.2-.72,3.29-2.89,3.29a8.21,8.21,0,0,1-1-.06h-2.38L137.31,72h.35l.24,0c.5,0,.71-.34.64-1l.28-10h4.25l-.29,10.53c.11,3.63-1.29,5.46-4.21,5.46l-.54,0h-.51l-.06,2.21C137.43,80.14,138,80.66,139.24,80.66Z" transform="translate(-7.24 -12.54)"/><polygon class="cls-7" points="108.81 58.42 104.89 58.42 104.93 57.06 108.85 57.06 108.81 58.42"/><g class="cls-4"><polygon class="cls-7" points="108.67 63.35 104.75 63.35 104.79 62.16 108.71 62.16 108.67 63.35"/><path class="cls-7" d="M122.37,64.34l.3,1.19h4.77l-.11,4.08h-4.77l0,1.35h4.77l-.1,3.74h-4.77l0,1.19H127l-.1,3.74h-4.61l0,1.36H127l-.1,3.39H111.76l0,.85h-6.31l.41-14.61h-1.37l.11-4.07h.85l.29,0a1.29,1.29,0,0,0,1.28-1l.71-1.19H113l-.37,1.19h3.58l-.31-1.19Z" transform="translate(-7.24 -12.54)"/></g><polygon class="cls-7" points="108.53 68.44 104.61 68.44 104.65 67.09 108.57 67.09 108.53 68.44"/><polygon class="cls-7" points="103.71 45.34 101.18 50.77 97.78 50.77 97.88 47.04 99.58 47.04 100.31 45.34 103.71 45.34"/><g class="cls-4"><polygon class="cls-7" points="103.56 44.65 100.33 44.65 97.92 39.22 101.33 39.22 102.47 41.09 103.66 41.09 103.56 44.65"/><polygon class="cls-7" points="104.08 50.77 104.42 38.54 97.77 38.54 97.88 34.29 109.13 34.29 108.67 50.77 104.08 50.77"/></g><polygon class="cls-7" points="114.98 44.65 111.74 44.65 109.51 39.22 113.08 39.22 113.88 41.09 115.08 41.09 114.98 44.65"/><polygon class="cls-7" points="115.32 50.77 115.66 38.54 110.2 38.54 110.32 34.13 120.56 34.13 120.1 50.77 115.32 50.77"/><polygon class="cls-7" points="111.17 47.04 111.72 45.34 115.13 45.34 112.94 50.77 109.36 50.77 109.46 47.04 111.17 47.04"/><path class="cls-7" d="M176.53,46.33,176.26,56h10.57l-.14,5.1H176.12L175.82,72h3.75a.93.93,0,0,0,1.05-1l.22-7.82h5.61l-.26,9.69c0,2.72-1.41,4.08-4.35,4.08h-6.16l-.05,2c-.13.8.21,1.2,1,1.2a1.77,1.77,0,0,0,.32,0h9l-.13,4.6H173.94c-.43,0-.82.07-1.19.07q-4.51,0-3.62-4.83l.08-3.06h-2.73l.14-4.93h2.73l.3-10.87h-6.82l-.1,3.74h4.09l-.16,5.61h-4.09l-.27,9.67q.48,4.84-4.44,4.84a12.23,12.23,0,0,1-1.3-.08h-8l.13-4.76H155a.92.92,0,0,0,1.05-1l.16-5.62-2.44,2a3.65,3.65,0,0,1-2.07.68h-4.6l.13-4.93h1.37a2.47,2.47,0,0,0,1.56-.84l6.26-4.76.13-4.59h-8.69L148,56h8.69l.08-2.89h-8.18l.14-5.1h11.08c.68,0,1-.27,1-.84l0-.85h6l-.06,2.21q.18,4.6-3.21,4.6l-.5,0L163,56h6.82l.27-9.68Z" transform="translate(-7.24 -12.54)"/><path class="cls-7" d="M185.82,49H187l-.12,4.43h-4.44a6.77,6.77,0,0,1-1.05.09c-2.09,0-3-1.28-2.59-3.84l.08-2.88h6l0,1.18c-.12.7.12,1,.71,1A1.37,1.37,0,0,0,185.82,49Z" transform="translate(-7.24 -12.54)"/><path class="cls-7" d="M214.26,80.47h15.5l-.13,4.76H211.92c-2.73-.11-4.11-1.75-4.12-4.93l.92-33.63h21.81l-.61,21.92c-.08,3-1.55,4.64-4.39,4.75H213.61l-.17,5.94C213.42,80.08,213.69,80.47,214.26,80.47Zm8.12-28.88-.46,16.82h2.22c.34,0,.51-.22.53-.68l.44-16.14h-2.73m-8.18,0-.45,16.65h2.72l.46-16.65H214.2" transform="translate(-7.24 -12.54)"/><path class="cls-7" d="M191,83.53l1-37.2h15.16l-.9,33q-.12,4.25-5.06,4.25Zm6.52-32.27L196.76,79h3.06l.32,0c.56,0,.8-.29.73-.87l.74-26.84h-4.09" transform="translate(-7.24 -12.54)"/><polygon class="cls-7" points="234.74 39.05 238.49 39.05 238.19 49.93 236.85 61.14 235.16 61.14 234.44 49.93 234.74 39.05"/><polygon class="cls-7" points="233.92 68.78 234.03 64.87 237.77 64.87 237.67 68.78 233.92 68.78"/></g><polygon class="cls-8" points="24.28 95.49 26.49 16.3 273.13 16.3 273.39 5.7 16.03 5.45 13.86 95.49 24.28 95.49"/></g></g></svg>