<?xml version="1.0" standalone="no"?><!DOCTYPE svg PUBLIC "-//W3C//DTD SVG 1.1//EN" "http://www.w3.org/Graphics/SVG/1.1/DTD/svg11.dtd"><svg t="1565614146191" class="icon" viewBox="0 0 1024 1024" version="1.1" xmlns="http://www.w3.org/2000/svg" p-id="3000" xmlns:xlink="http://www.w3.org/1999/xlink" width="32" height="32"><defs><style type="text/css"></style></defs><path d="M916.746 444.643h-334.597v-334.597c0-8.010-6.554-14.563-14.563-14.563h-111.047c-8.010 0-14.563 6.554-14.563 14.563v334.597h-334.597c-8.010 0-14.563 6.554-14.563 14.563v111.047c0 8.010 6.554 14.563 14.563 14.563h334.597v334.597c0 8.010 6.554 14.563 14.563 14.563h111.047c8.010 0 14.563-6.554 14.563-14.563v-334.597h334.597c8.010 0 14.563-6.554 14.563-14.563v-111.047c0-8.010-6.554-14.563-14.563-14.563z" fill="#ffffff" p-id="3001"></path></svg>