<?xml version="1.0" standalone="no"?><!DOCTYPE svg PUBLIC "-//W3C//DTD SVG 1.1//EN" "http://www.w3.org/Graphics/SVG/1.1/DTD/svg11.dtd"><svg t="1565606257540" class="icon" viewBox="0 0 1024 1024" version="1.1" xmlns="http://www.w3.org/2000/svg" p-id="2494" xmlns:xlink="http://www.w3.org/1999/xlink" width="32" height="32"><defs><style type="text/css"></style></defs><path d="M738.463 917.838h-162.506c-16.142 0-29.127-12.986-29.127-29.127v-252.435c0-0.122-0.242-0.485-0.485-0.485h-76.337c-0.122 0-0.485 0.242-0.485 0.485v252.435c0 16.142-12.986 29.127-29.127 29.127h-162.384c-48.667 0-88.231-39.564-88.231-88.231v-256.561h-17.718c-27.428 0-52.065-16.262-62.988-41.506-10.801-25.122-5.703-54.25 13.229-74.153l296.975-313.602c24.030-25.364 57.769-39.929 92.721-39.929s68.691 14.563 92.721 39.929l296.854 313.602c18.811 19.903 24.030 49.030 13.229 74.153s-35.559 41.506-62.988 41.506h-25.122v256.561c0 48.667-39.564 88.231-88.231 88.231zM605.085 859.583h133.378c16.506 0 29.977-13.471 29.977-29.977v-285.689c0-16.142 12.986-29.127 29.127-29.127h54.25c3.155 0 7.524-1.578 9.467-6.19s0.122-8.86-1.942-11.165l-297.097-313.602c-13.229-13.957-31.069-21.724-50.366-21.724s-37.137 7.646-50.366 21.724l-296.975 313.602c-2.185 2.306-4.005 6.554-1.942 11.165 1.942 4.611 6.311 6.19 9.467 6.19h46.846c16.142 0 29.127 12.986 29.127 29.127v285.689c0 16.506 13.471 29.977 29.977 29.977h133.378v-223.308c0-32.404 26.336-58.74 58.74-58.74h76.337c32.404 0 58.74 26.336 58.74 58.74v223.308z" fill="#707070" p-id="2495"></path></svg>