<?xml version="1.0" standalone="no"?><!DOCTYPE svg PUBLIC "-//W3C//DTD SVG 1.1//EN" "http://www.w3.org/Graphics/SVG/1.1/DTD/svg11.dtd"><svg t="1565614317530" class="icon" viewBox="0 0 1024 1024" version="1.1" xmlns="http://www.w3.org/2000/svg" p-id="3181" xmlns:xlink="http://www.w3.org/1999/xlink" width="32" height="32"><defs><style type="text/css"></style></defs><path d="M780.357 574.138c-41.036-41.036-89.712-71.588-142.787-90.229 57.347-40.26 95.020-106.929 95.020-182.271 0-122.722-99.809-222.661-222.661-222.661-122.722 0-222.661 99.809-222.661 222.661 0 75.343 37.541 142.011 95.020 182.271-53.076 18.771-101.75 49.322-142.787 90.229-72.236 72.236-111.978 168.29-111.978 270.429 0 23.69 0 41.943 0.13 61.749 0.13 17.088 13.981 30.94 31.069 30.94h0.13c17.218-0.13 30.94-14.111 30.94-31.199-0.13-19.677-0.13-37.801-0.13-61.361 0-176.575 143.694-320.398 320.398-320.398s320.398 143.694 320.398 320.398c0 23.559 0 41.684-0.13 61.361-0.13 17.218 13.723 31.199 30.94 31.199h0.13c17.088 0 30.94-13.852 31.069-30.94 0.13-19.807 0.13-38.060 0.13-61.749-0.258-102.14-40.001-198.194-112.236-270.429zM349.406 301.637c0-88.546 71.977-160.524 160.524-160.524s160.524 71.977 160.524 160.524-71.977 160.524-160.524 160.524-160.524-72.106-160.524-160.524z" fill="#ffffff" p-id="3182"></path></svg>