<?xml version="1.0" standalone="no"?><!DOCTYPE svg PUBLIC "-//W3C//DTD SVG 1.1//EN" "http://www.w3.org/Graphics/SVG/1.1/DTD/svg11.dtd"><svg t="1549878206409" class="icon" style="" viewBox="0 0 1024 1024" version="1.1" xmlns="http://www.w3.org/2000/svg" p-id="4036" xmlns:xlink="http://www.w3.org/1999/xlink" width="200" height="200"><defs><style type="text/css"></style></defs><path d="M512 512m-512 0a512 512 0 1 0 1024 0 512 512 0 1 0-1024 0Z" fill="#FFFFFF" p-id="4037"></path><path d="M211.2 176h617.6c19.2 0 35.2 16 35.2 35.2v617.6c0 19.2-16 35.2-35.2 35.2H211.2c-19.2 0-35.2-16-35.2-35.2V211.2c0-19.2 16-35.2 35.2-35.2z" fill="#D6F1FF" p-id="4038"></path><path d="M176 176h688l-688 688z" fill="#FFFFFF" p-id="4039"></path><path d="M486.4 658.4c0 10.4-8.8 19.2-19.2 19.2H348l-31.2-31.2V370.4h150.4c10.4 0 19.2 8.8 19.2 19.2 0 10.4-8.8 19.2-19.2 19.2H356v92h111.2c10.4 0 19.2 8.8 19.2 19.2 0 10.4-8.8 19.2-19.2 19.2H356v99.2h111.2c10.4 0.8 19.2 9.6 19.2 20z m90.4 20.8c-10.4 0-19.2-8.8-19.2-19.2V390.4c0-11.2 8.8-20 20-20 12 0 23.2 7.2 28 18.4l87.2 200V390.4c0-10.4 8.8-19.2 19.2-19.2 10.4 0 19.2 8.8 19.2 19.2v271.2c0 9.6-8 18.4-18.4 18.4-11.2 0-20.8-6.4-25.6-16.8L596 453.6v206.4c0 10.4-8.8 19.2-19.2 19.2z" fill="#0072FF" p-id="4040"></path><path d="M814.4 864H225.6c-27.2 0-49.6-22.4-49.6-49.6V225.6c0-27.2 22.4-49.6 49.6-49.6h589.6c26.4 0 48.8 22.4 48.8 49.6v589.6c0 26.4-22.4 48.8-49.6 48.8zM225.6 204c-12 0-20.8 9.6-20.8 20.8v589.6c0 12 9.6 20.8 20.8 20.8h589.6c12 0 20.8-9.6 20.8-20.8V225.6c0-12-9.6-20.8-20.8-20.8H225.6z" fill="#333333" p-id="4041"></path></svg>