<?xml version="1.0" encoding="utf-8"?>
<!-- Generator: Adobe Illustrator 16.0.0, SVG Export Plug-In . SVG Version: 6.00 Build 0)  -->
<!DOCTYPE svg PUBLIC "-//W3C//DTD SVG 1.1//EN" "http://www.w3.org/Graphics/SVG/1.1/DTD/svg11.dtd">
<svg version="1.1" id="图层_1" xmlns="http://www.w3.org/2000/svg" xmlns:xlink="http://www.w3.org/1999/xlink" x="0px" y="0px"
	 width="595.28px" height="841.89px" viewBox="0 0 595.28 841.89" enable-background="new 0 0 595.28 841.89" xml:space="preserve">
<g>
	<g>
		<defs>
			<rect id="SVGID_1_" x="-113" y="10.89" width="819.84" height="820.72"/>
		</defs>
		<clipPath id="SVGID_2_">
			<use xlink:href="#SVGID_1_"  overflow="visible"/>
		</clipPath>
		<path clip-path="url(#SVGID_2_)" fill="#FFFFFF" d="M-113.12,421.012c0,226.214,183.383,409.597,409.602,409.597
			c226.213,0,409.596-183.383,409.596-409.597c0-226.219-183.383-409.602-409.596-409.602
			C70.263,11.41-113.12,194.793-113.12,421.012L-113.12,421.012z M-113.12,421.012"/>
	</g>
	<path fill="#FFB900" d="M-11.358,421.012c0,109.979,58.672,211.604,153.918,266.593c95.246,54.992,212.592,54.992,307.84,0
		c95.246-54.988,153.92-156.613,153.92-266.593c0-170.016-137.824-307.84-307.838-307.84
		C126.466,113.172-11.358,250.996-11.358,421.012L-11.358,421.012z M-11.358,421.012"/>
	<path fill="#333333" d="M296.482,740.372c-81.922,0-163.204-31.359-225.922-93.441c-124.16-124.161-124.16-327.04,0-451.2
		c124.16-124.16,327.04-124.16,451.2,0c124.158,124.16,124.158,327.039,0,451.2C460.32,709.012,378.4,740.372,296.482,740.372
		L296.482,740.372z M296.482,124.691c-76.161,0-151.68,28.797-209.922,87.039c-115.84,115.84-115.84,304,0,419.84
		c115.84,115.84,304,115.84,419.84,0c115.838-115.84,115.838-304,0-419.84C448.803,153.488,372.643,124.691,296.482,124.691
		L296.482,124.691z M296.482,124.691"/>
	<path fill="#FF7400" d="M333.6,509.333h-77.439l-16.64,82.558h-62.719l65.918-330.878H346.4L413.6,592.531h-62.719L333.6,509.333z
		 M293.278,322.449l-24.957,126.082h52.482L295.2,322.449H293.278z M293.278,322.449"/>
	<path fill="#333333" d="M427.039,603.41h-85.762l-16.635-82.559h-58.884l-16.641,82.559H162.72l70.398-353.921h122.242
		L427.039,603.41z M359.842,581.012h39.68L336.803,271.89h-85.122l-61.442,309.122h39.68l16.641-82.563h96L359.842,581.012z
		 M334.881,459.41H254.88l29.441-148.479h19.839L334.881,459.41z M282.4,437.012h24.959L294.56,375.57L282.4,437.012z
		 M282.4,437.012"/>
</g>
<g>
	<g>
		<defs>
			<rect id="SVGID_3_" x="-22.414" y="102.828" width="636.861" height="637.544"/>
		</defs>
		<clipPath id="SVGID_4_">
			<use xlink:href="#SVGID_3_"  overflow="visible"/>
		</clipPath>
		<path clip-path="url(#SVGID_4_)" fill="#292F33" d="M-22.507,421.415c0,175.725,142.454,318.179,318.183,318.179
			c175.726,0,318.18-142.454,318.18-318.179c0-175.729-142.454-318.183-318.18-318.183
			C119.946,103.232-22.507,245.686-22.507,421.415L-22.507,421.415z M-22.507,421.415"/>
	</g>
	<path fill="#A4E77F" d="M-2.619,421.415c0,164.742,133.55,298.295,298.295,298.295c164.742,0,298.296-133.554,298.296-298.295
		c0-164.746-133.554-298.295-298.296-298.295C130.931,123.12-2.619,256.669-2.619,421.415L-2.619,421.415z M-2.619,421.415"/>
	<path fill="#292F33" d="M156.468,560.597c-0.002-5.305,2.115-10.39,5.885-14.125c3.771-3.732,8.878-5.799,14.182-5.741h39.396
		c11.097,0,20.085,8.809,20.085,19.866v19.928c0.006,5.304-2.115,10.393-5.883,14.124c-3.77,3.732-8.879,5.799-14.183,5.741h-39.393
		c-11.097,0-20.088-8.809-20.088-19.865V560.597z M335.448,560.597c-0.006-5.305,2.112-10.39,5.883-14.125
		c3.77-3.732,8.877-5.799,14.181-5.741h39.396c11.098,0,20.084,8.809,20.084,19.866v19.928c0.007,5.304-2.111,10.393-5.883,14.124
		c-3.77,3.732-8.876,5.799-14.181,5.741h-39.396c-11.097,0-20.084-8.809-20.084-19.865V560.597z M375.221,401.506
		c-0.007-5.304,2.111-10.39,5.883-14.123c3.77-3.733,8.876-5.802,14.183-5.745h39.394c11.096,0,20.084,8.812,20.084,19.867v19.927
		c0.006,5.304-2.111,10.393-5.881,14.125c-3.771,3.732-8.879,5.799-14.183,5.741h-39.396c-11.098,0-20.084-8.81-20.084-19.866
		V401.506z M116.697,401.506c-0.007-5.304,2.115-10.39,5.883-14.123c3.769-3.733,8.879-5.802,14.183-5.745h39.394
		c11.096,0,20.088,8.812,20.088,19.867v19.927c0.002,5.304-2.115,10.393-5.884,14.125c-3.771,3.732-8.878,5.799-14.182,5.741
		h-39.415c-5.301,0.043-10.398-2.029-14.164-5.76c-3.766-3.729-5.89-8.806-5.902-14.106V401.506z M116.697,401.506"/>
	<path fill="#FFC59B" d="M156.468,282.208h258.523c10.985,0,19.889,8.906,19.889,19.888v238.636
		c0,10.985-8.903,19.888-19.889,19.888H156.468c-10.981,0-19.884-8.902-19.884-19.888V302.095
		C136.584,291.113,145.487,282.208,156.468,282.208L156.468,282.208z M156.468,282.208"/>
	<path fill="#292F33" d="M414.991,570.563H156.468c-16.443,0-29.828-13.386-29.828-29.832V302.095
		c0-16.446,13.384-29.828,29.828-29.828h258.523c16.447,0,29.833,13.381,29.833,29.828v238.636
		C444.824,557.177,431.438,570.563,414.991,570.563L414.991,570.563z M156.468,292.151c-5.489,0-9.94,4.453-9.94,9.944v238.636
		c0,5.493,4.451,9.943,9.94,9.943h258.523c5.469,0,9.945-4.476,9.945-9.943V302.095c0-5.492-4.452-9.944-9.945-9.944H156.468z
		 M156.468,292.151"/>
	<path fill="#FFFFFF" d="M191.27,481.071h29.832c8.235,0,14.914,6.679,14.914,14.918c0,8.234-6.679,14.914-14.914,14.914H191.27
		c-8.235,0-14.914-6.68-14.914-14.914C176.356,487.75,183.035,481.071,191.27,481.071L191.27,481.071z M191.27,481.071"/>
	<path fill="#362D26" d="M221.102,515.873H191.27c-10.635-0.476-19.016-9.236-19.016-19.884s8.381-19.412,19.016-19.888h29.832
		c10.635,0.476,19.017,9.24,19.017,19.888S231.737,515.397,221.102,515.873L221.102,515.873z M191.27,486.045
		c-5.492,0-9.944,4.45-9.944,9.943c0,5.488,4.452,9.94,9.944,9.94h29.832c5.489,0,9.94-4.452,9.94-9.94
		c0-5.493-4.451-9.943-9.94-9.943H191.27z M191.27,486.045"/>
	<path fill="#FFFFFF" d="M350.362,481.071h29.827c8.239,0,14.918,6.679,14.918,14.918c0,8.234-6.679,14.914-14.918,14.914h-29.827
		c-8.238,0-14.914-6.68-14.914-14.914C335.448,487.75,342.124,481.071,350.362,481.071L350.362,481.071z M350.362,481.071"/>
	<path fill="#362D26" d="M380.189,515.873h-29.827c-10.982,0-19.889-8.902-19.889-19.884c0-10.984,8.906-19.888,19.889-19.888
		h29.827c10.985,0,19.889,8.903,19.889,19.888C400.078,506.97,391.175,515.873,380.189,515.873L380.189,515.873z M350.362,486.045
		c-5.468,0-9.944,4.473-9.944,9.943c0,5.468,4.477,9.94,9.944,9.94h29.827c5.472,0,9.944-4.473,9.944-9.94
		c0-5.471-4.473-9.943-9.944-9.943H350.362z M330.474,312.039h-89.488c-2.746,0-4.97-2.227-4.97-4.974c0-2.743,2.224-4.97,4.97-4.97
		h89.488c2.747,0,4.975,2.227,4.975,4.97C335.448,309.812,333.221,312.039,330.474,312.039L330.474,312.039z M146.528,331.923
		h278.408v99.432H146.528V331.923z M146.528,331.923"/>
	<rect x="146.528" y="341.867" fill="#FFFDE1" width="278.408" height="79.547"/>
</g>
</svg>
