<?xml version="1.0" encoding="utf-8"?>
<!-- Generator: Adobe Illustrator 16.0.0, SVG Export Plug-In . SVG Version: 6.00 Build 0)  -->
<!DOCTYPE svg PUBLIC "-//W3C//DTD SVG 1.1//EN" "http://www.w3.org/Graphics/SVG/1.1/DTD/svg11.dtd">
<svg version="1.1" id="图层_1" xmlns="http://www.w3.org/2000/svg" xmlns:xlink="http://www.w3.org/1999/xlink" x="0px" y="0px"
	 width="17.234px" height="16px" viewBox="0 0 17.234 16" enable-background="new 0 0 17.234 16" xml:space="preserve">
<path d="M16,16H1.231C0.551,16,0,15.449,0,14.77V2.461c0-0.68,0.551-1.23,1.231-1.23h2.461v1.23H1.231v1.846H16V2.461h-2.461v-1.23
	H16c0.68,0,1.23,0.551,1.23,1.23V14.77C17.23,15.449,16.68,16,16,16z M16,5.539H1.231v9.231H16V5.539z M12.308,3.692
	c-0.34,0-0.615-0.276-0.615-0.616V0.615C11.692,0.276,11.968,0,12.308,0s0.615,0.276,0.615,0.615v2.461
	C12.923,3.417,12.647,3.692,12.308,3.692z M6.154,1.231h4.923v1.23H6.154V1.231z M4.923,3.692c-0.339,0-0.615-0.276-0.615-0.616
	V0.615C4.308,0.276,4.583,0,4.923,0c0.34,0,0.616,0.276,0.616,0.615v2.461C5.539,3.417,5.263,3.692,4.923,3.692z"/>
</svg>
