<?xml version="1.0" standalone="no"?><!DOCTYPE svg PUBLIC "-//W3C//DTD SVG 1.1//EN" "http://www.w3.org/Graphics/SVG/1.1/DTD/svg11.dtd"><svg t="1549959255636" class="icon" style="" viewBox="0 0 1024 1024" version="1.1" xmlns="http://www.w3.org/2000/svg" p-id="9692" xmlns:xlink="http://www.w3.org/1999/xlink" width="200" height="200"><defs><style type="text/css"></style></defs><path d="M512 512m-512 0a512 512 0 1 0 1024 0 512 512 0 1 0-1024 0Z" fill="#FFFFFF" p-id="9693"></path><path d="M204.8 835.2H800c28 0 51.2-23.2 51.2-51.2V188.8H256c-28 0-51.2 23.2-51.2 51.2v595.2z" fill="#0072FF" p-id="9694"></path><path d="M800 848H192V240c0-35.2 28.8-64 64-64h608v608c0 35.2-28.8 64-64 64z m-582.4-25.6H800c20.8 0 38.4-17.6 38.4-38.4V201.6H256c-20.8 0-38.4 17.6-38.4 38.4v582.4z" fill="#333333" p-id="9695"></path><path d="M332.8 364.8h518.4v166.4H332.8z" fill="#D6F1FF" p-id="9696"></path><path d="M864 544H320V352h544v192z m-518.4-25.6h492.8V377.6H345.6v140.8z" fill="#333333" p-id="9697"></path><path d="M652 721.6V589.6l192.8 67.2V792l-192.8-70.4z" fill="#D6F1FF" p-id="9698"></path><path d="M857.6 810.4l-218.4-80V571.2l218.4 76.8v162.4zM664.8 712.8l167.2 60.8V666.4L664.8 608v104.8z" fill="#333333" p-id="9699"></path><path d="M508.8 188.8h166.4v646.4H508.8z" fill="#D6F1FF" p-id="9700"></path><path d="M688 848H496V176h192v672z m-166.4-25.6h140.8V201.6H521.6v620.8z" fill="#333333" p-id="9701"></path><path d="M800 848H192V240c0-35.2 28.8-64 64-64h608v608c0 35.2-28.8 64-64 64z m-582.4-25.6H800c20.8 0 38.4-17.6 38.4-38.4V201.6H256c-20.8 0-38.4 17.6-38.4 38.4v582.4z" fill="#333333" p-id="9702"></path><path d="M508.8 364.8h166.4v166.4H508.8z" fill="#D6F1FF" p-id="9703"></path><path d="M688 544H496V352h192v192z m-166.4-25.6h140.8V377.6H521.6v140.8z" fill="#333333" p-id="9704"></path></svg>