<?xml version="1.0" standalone="no"?><!DOCTYPE svg PUBLIC "-//W3C//DTD SVG 1.1//EN" "http://www.w3.org/Graphics/SVG/1.1/DTD/svg11.dtd"><svg t="1550242765707" class="icon" style="" viewBox="0 0 1024 1024" version="1.1" xmlns="http://www.w3.org/2000/svg" p-id="4272" xmlns:xlink="http://www.w3.org/1999/xlink" width="200" height="200"><defs><style type="text/css"></style></defs><path d="M996 345.6c-51.2-148.8-168-266.4-317.6-317.6C464-45.6 233.6 31.2 104 203.2v-2.4c0.8-21.6-16.8-39.2-39.2-39.2-21.6 0-39.2 17.6-39.2 39.2v157.6c0 21.6 17.6 39.2 39.2 39.2 13.6 0 26.4-7.2 32.8-18.4 1.6-2.4 3.2-5.6 4.8-8a431.44 431.44 0 0 1 268.8-268.8c226.4-77.6 472.8 42.4 550.4 268.8 5.6 16 20.8 26.4 37.6 26.4 4 0 8.8-0.8 12.8-2.4 20-6.4 31.2-28.8 24-49.6zM959.2 628c-6.4 0-12.8 1.6-18.4 4.8-0.8 0-0.8 0.8-1.6 0.8-0.8 0.8-2.4 0.8-3.2 1.6-7.2 4.8-12.8 11.2-16 20-60.8 173.6-224.8 290.4-408.8 290.4s-347.2-116-408-289.6c-8-19.2-28.8-28.8-48-23.2-20.8 6.4-32.8 28-26.4 48.8 72 204.8 265.6 342.4 483.2 342.4 163.2 0 312.8-77.6 408-202.4v3.2c0 21.6 17.6 39.2 39.2 39.2s39.2-17.6 39.2-39.2V667.2c0-21.6-17.6-39.2-39.2-39.2z" p-id="4273"></path><path d="M240.8 590.4c18.4-12.8 40.8-28.8 67.2-48.8 1.6 8.8 2.4 15.2 4 19.2-30.4 21.6-52.8 38.4-68.8 49.6-5.6 5.6-11.2 9.6-14.4 13.6l-15.2-16c3.2-4 6.4-8 8-12.8 1.6-4 2.4-9.6 2.4-17.6V467.2l-40.8 4-2.4-16.8 42.4-4.8v-96H240V448l67.2-8 1.6 17.6-68.8 8 0.8 124.8zM297.6 376h183.2c-2.4 104.8-5.6 180.8-8 227.2-0.8 37.6-19.2 56.8-55.2 56-7.2 0-13.6 0.8-20.8 0.8h-24c-1.6-8-2.4-14.4-4.8-20 13.6 0.8 30.4 0.8 47.2 0.8 24.8 0.8 37.6-11.2 38.4-36.8 3.2-65.6 6.4-136 8-210.4H376.8c-0.8 30.4-2.4 60-4 91.2-2.4 82.4-31.2 144-84.8 184-3.2-3.2-8-8-14.4-13.6 53.6-39.2 80-96 80.8-169.6 2.4-28.8 3.2-60 4-93.6h-60l-0.8-16zM515.2 546.4l-1.6-18.4c17.6-4.8 31.2-9.6 43.2-13.6V432H520v-16h36.8v-60.8h17.6V416h36.8v16h-36.8v76.8c12.8-4 24.8-8 36-12 0 5.6 0 11.2 0.8 17.6-8 2.4-19.2 6.4-34.4 10.4l-2.4 1.6v107.2c0 21.6-9.6 32-30.4 32.8h-25.6c-0.8-7.2-1.6-13.6-2.4-18.4 8 0.8 16 0.8 24 0.8 12.8 0.8 18.4-5.6 17.6-18.4V532c-1.6 0.8-2.4 0.8-4.8 2.4-11.2 2.4-22.4 7.2-37.6 12z m114.4-84.8c-0.8-0.8-2.4-2.4-4.8-4-3.2-3.2-7.2-6.4-8-8 29.6-28 52-60.8 68.8-97.6l17.6 4c-4.8 8.8-10.4 19.2-16.8 30.4h100v17.6l-38.4 50.4h60.8v99.2h24.8v16H730.4c19.2 39.2 52 66.4 101.6 80.8-3.2 4.8-7.2 11.2-10.4 17.6C769.6 648.8 736 620.8 720 582.4c-9.6 36-46.4 64.8-111.2 88-3.2-6.4-8-12-11.2-16.8 64-20 100.8-48 108.8-84H607.2v-16h28V455.2l-2.4 2.4c-2.4 2.4-3.2 4-3.2 4z m136-57.6H674.4c-11.2 17.6-24.8 35.2-40.8 52h91.2l40.8-52z m-113.6 66.4v83.2h57.6c2.4-10.4 2.4-22.4 2.4-36v-47.2h-60z m138.4 0h-60.8v48c0 12-0.8 24-2.4 34.4h63.2V470.4z" p-id="4274"></path></svg>