<?xml version="1.0" encoding="utf-8"?>
<!-- Generator: Adobe Illustrator 16.0.0, SVG Export Plug-In . SVG Version: 6.00 Build 0)  -->
<!DOCTYPE svg PUBLIC "-//W3C//DTD SVG 1.1//EN" "http://www.w3.org/Graphics/SVG/1.1/DTD/svg11.dtd">
<svg version="1.1" id="图层_1" xmlns="http://www.w3.org/2000/svg" xmlns:xlink="http://www.w3.org/1999/xlink" x="0px" y="0px"
	 width="128px" height="128px" viewBox="0 0 128 128" enable-background="new 0 0 128 128" xml:space="preserve">
<path fill="#FFFFFF" d="M0,64c0,35.346,28.654,64,64,64c35.346,0,64-28.654,64-64c0-35.346-28.654-64-64-64C28.654,0,0,28.654,0,64z
	"/>
<path fill="#D6F1FF" d="M25.8,34.3v-3.4c0-1.6,1.3-3,2.9-3H107.1C108.7,28,110,29.3,110,31v50.3c0,1.601-1.3,3-2.9,3h-2.6"/>
<path fill="#333333" d="M107.1,85.7h-2.6v-2.9h2.6c0.801,0,1.5-0.7,1.5-1.5V31c0-0.8-0.699-1.5-1.5-1.5H28.7
	c-0.8-0.1-1.4,0.6-1.4,1.5v3.4h-2.9V31c0-2.4,2-4.4,4.3-4.4H107.1c2.4,0,4.301,2,4.301,4.4v50.3C111.4,83.7,109.5,85.7,107.1,85.7z"
	/>
<path fill="#D6F1FF" d="M30.1,90.2h-7.2c-1.6,0-2.9-1.3-2.9-3V36.9c0-1.6,1.3-3,2.9-3h78.4c1.601,0,2.9,1.3,2.9,3v50.3
	c0,1.6-1.3,3-2.9,3h-62"/>
<path fill="#333333" d="M101.3,91.6h-62V88.7h62c0.8,0,1.5-0.7,1.5-1.5V36.9c0-0.8-0.7-1.5-1.5-1.5H22.9c-0.8,0-1.5,0.6-1.5,1.5
	v50.3c0,0.8,0.7,1.5,1.5,1.5h7.2V91.6h-7.2c-2.4,0-4.3-2-4.3-4.399V36.9c0-2.4,2-4.4,4.3-4.4h78.4c2.4,0,4.3,2,4.3,4.4v50.3
	C105.6,89.6,103.7,91.6,101.3,91.6z"/>
<path fill="#D6F1FF" d="M40.3,90.2L28.7,102V90.2"/>
<path fill="#333333" d="M28.7,103.4c-0.2,0-0.4,0-0.5-0.101c-0.5-0.2-0.9-0.8-0.9-1.3V90.2c0-0.8,0.6-1.4,1.4-1.4
	c0.8,0,1.4,0.601,1.4,1.4v8.3l9.1-9.3c0.6-0.601,1.5-0.601,2,0c0.6,0.6,0.6,1.5,0,2L29.7,103C29.5,103.3,29.1,103.4,28.7,103.4z"/>
<path fill="#0072FF" d="M76.33,61.58c0,2.154,1.74,3.892,3.889,3.898c2.148,0.005,3.893-1.74,3.896-3.888
	c0-2.148-1.744-3.89-3.893-3.893l0,0C78.074,57.695,76.33,59.432,76.33,61.58L76.33,61.58L76.33,61.58z M41.556,61.58
	c-0.003,2.154,1.734,3.892,3.882,3.898c2.148,0.005,3.893-1.74,3.897-3.888c0.006-2.148-1.739-3.89-3.887-3.893l0,0
	C43.3,57.695,41.559,59.432,41.556,61.58L41.556,61.58L41.556,61.58z"/>
<path fill="#0072FF" d="M60.099,61.581c-0.006,2.16,1.74,3.905,3.896,3.909c2.155,0.007,3.907-1.745,3.907-3.9
	c0.004-2.156-1.742-3.906-3.898-3.906c-2.156-0.006-3.906,1.735-3.906,3.886C60.099,61.575,60.099,61.581,60.099,61.581z"/>
</svg>
