<?xml version="1.0" standalone="no"?><!DOCTYPE svg PUBLIC "-//W3C//DTD SVG 1.1//EN" "http://www.w3.org/Graphics/SVG/1.1/DTD/svg11.dtd"><svg t="1549995678835" class="icon" style="" viewBox="0 0 1024 1024" version="1.1" xmlns="http://www.w3.org/2000/svg" p-id="8422" xmlns:xlink="http://www.w3.org/1999/xlink" width="200" height="200"><defs><style type="text/css"></style></defs><path d="M802.133 128H221.867c-51.2 0-93.867 42.667-93.867 93.867V256h768v-34.133c0-51.2-42.667-93.867-93.867-93.867zM631.467 68.267l17.066 102.4H375.467l17.066-102.4h238.934zM640 0H384c-25.6 0-51.2 25.6-51.2 51.2l-25.6 128c0 25.6 17.067 51.2 42.667 51.2H665.6c25.6 0 42.667-25.6 42.667-51.2L691.2 51.2C691.2 25.6 665.6 0 640 0z m179.2 324.267H204.8c-34.133 0-59.733 25.6-59.733 59.733l51.2 580.267c0 34.133 34.133 59.733 68.266 59.733H742.4c34.133 0 68.267-25.6 68.267-59.733L861.867 384c17.066-34.133-8.534-59.733-42.667-59.733zM384 896h-93.867L256 452.267h128V896z m196.267 0h-128V452.267h128V896z m153.6 0H640V452.267h128L733.867 896z" fill="#999999" p-id="8423"></path></svg>