<?xml version="1.0" standalone="no"?><!DOCTYPE svg PUBLIC "-//W3C//DTD SVG 1.1//EN" "http://www.w3.org/Graphics/SVG/1.1/DTD/svg11.dtd"><svg class="icon" width="16px" height="16.00px" viewBox="0 0 1024 1024" version="1.1" xmlns="http://www.w3.org/2000/svg"><path d="M173.822394 511.701934c0 188.366631 147.49848 341.119903 329.440134 341.119903s329.440135-152.775351 329.440135-341.119903-147.49848-341.119903-329.440135-341.119903-329.440135 152.709114-329.440134 341.119903z m0 0" fill="#98DFF2" /><path d="M503.262528 1022.752539C231.095211 1022.752539 9.632221 793.484637 9.632221 511.701934a525.324651 525.324651 0 0 1 27.598698-168.793635c5.011923-14.969534 20.820458-22.851722 35.381531-17.663167s22.078958 21.659458 16.967679 36.529637a468.879795 468.879795 0 0 0-24.485565 149.927165c0 250.132517 196.580004 453.656353 438.190043 453.656353s438.167964-203.490718 438.167964-453.656353S744.861528 58.045581 503.262528 58.045581c-104.025011 0-204.870653 38.428427-283.935401 108.098579a27.101921 27.101921 0 0 1-39.046638-3.201449 29.46437 29.46437 0 0 1 3.091054-40.514888C272.4491 43.87089 386.023261 0.651329 503.262528 0.651329c272.167317 0 493.619267 229.278941 493.619268 511.050605s-221.45195 511.050605-493.619268 511.050605z m0 0" fill="#474747" /><path d="M123.780435 260.366114a27.13504 27.13504 0 0 1-16.128679-5.287911 29.298777 29.298777 0 0 1-6.458095-40.029151q6.35874-9.129649 13.015546-17.961232a27.112961 27.112961 0 0 1 38.9804-4.857371 29.409172 29.409172 0 0 1 4.724897 40.316178c-3.952134 5.199595-7.804912 10.58686-11.569374 15.974126a27.433106 27.433106 0 0 1-22.564695 11.878479z m0 0" fill="#474747" /><path d="M656.987274 555.031889c-50.052998 0-93.316717 29.66308-114.567713 72.860562-65.132927-34.222385-117.018478-91.561439-145.301624-161.772526 47.46976-19.595075 81.018737-67.495375 81.018737-123.642166 0-73.53397-57.570883-133.147157-128.587852-133.147157-61.931478 0-115.384635 45.261864-127.616378 105.647815-0.342224 6.259385-0.43054 12.562927-0.596132 18.877509-0.154553 2.859225-0.408461 5.707411-0.408461 8.621833 0 1.368895 0.165592 2.704672 0.187671 4.062529 1.523448 244.215356 179.844154 444.857888 409.045818 471.838375a121.710257 121.710257 0 0 0 58.222213-1.225382c0.717566-0.154553-0.684448 0.231829 0 0 5.630134-1.589685 10.476466-6.932793 15.124086-9.836176 0.540934-0.783803 1.170185-1.446172 1.633843-2.207896 7.374372-12.49669 3.532633-28.857198-8.533517-36.430281l-2.141659-1.103948c-9.008215-5.663253-21.151642-6.027556-29.232541-0.110395a76.2828 76.2828 0 0 1-7.83803 0.816922 72.573535 72.573535 0 0 1-19.970418-3.102094c-41.95002-4.65866-75.22301-14.715626-98.350719-23.867354v0.110395c-0.64029-0.253908-1.247461-0.596132-1.887751-0.839-10.012808-4.040449-18.027469-7.804912-23.867353-10.80765-95.083033-45.074193-170.846978-126.137088-210.191682-226.905453-6.623687-14.505876-29.475409-75.300287-30.049462-158.836025-0.121434-1.89879 0 1.942948 0 0 0-44.047522 34.498372-79.771276 77.044525-79.771276s77.066603 35.723754 77.066603 79.771276c0 39.742125-28.150672 72.441062-64.890058 78.501736-13.13698 1.103948-23.469933 12.783717-23.469933 26.682421l0.242869 2.472843c0 8.036741 1.545527 15.057849 6.248345 23.756959 32.897648 90.313978 99.741693 163.903146 183.387827 204.970008v0.85004-0.85004l9.935531 4.945686 4.250199 1.854633 2.207896 1.103948a25.147933 25.147933 0 0 0 35.215938-8.831583 26.848013 26.848013 0 0 0 3.565752-12.562928c9.162768-33.295069 38.417387-57.85791 73.53397-57.857909 42.446797 0 76.867893 35.624399 76.867893 79.484249a81.438237 81.438237 0 0 1-4.2502 25.015459c-0.342224 0.463658 0.309105-0.518856 0 0-6.921753 11.757045-3.068975 29.740357 8.27961 36.8829l2.042303 1.037711c8.367925 5.243753 20.732142 4.272278 28.316264-1.103948 10.476466-19.28597 16.923521-38.57194 16.923522-62.251622 0-73.567089-57.570883-133.169236-128.609932-133.169236z m0 0" fill="#474747" /></svg>