<?xml version="1.0" standalone="no"?><!DOCTYPE svg PUBLIC "-//W3C//DTD SVG 1.1//EN" "http://www.w3.org/Graphics/SVG/1.1/DTD/svg11.dtd"><svg t="1563691219232" class="icon" viewBox="0 0 1024 1024" version="1.1" xmlns="http://www.w3.org/2000/svg" p-id="808" xmlns:xlink="http://www.w3.org/1999/xlink" width="16" height="16"><defs><style type="text/css"></style></defs><path d="M225.745455 451.490909c4.654545 4.654545 9.309091 9.309091 16.290909 9.309091 4.654545 0 6.981818 0 11.636363-2.327273 9.309091-4.654545 11.636364-18.618182 6.981818-27.927272 0 0-60.509091-95.418182-9.30909-160.581819 27.927273-37.236364 32.581818-81.454545 13.963636-130.327272-13.963636-34.909091-34.909091-60.509091-34.909091-62.836364-6.981818-9.309091-18.618182-9.309091-27.927273-2.327273-6.981818 6.981818-9.309091 18.618182-2.327272 27.927273 0 0 67.490909 83.781818 18.618181 144.290909-67.490909 83.781818 4.654545 200.145455 6.981819 204.8zM784.290909 444.509091c4.654545 4.654545 9.309091 9.309091 16.290909 9.309091 4.654545 0 6.981818 0 11.636364-2.327273 9.309091-4.654545 11.636364-18.618182 6.981818-27.927273 0 0-60.509091-95.418182-9.309091-160.581818 27.927273-34.909091 32.581818-81.454545 13.963636-130.327273-13.963636-34.909091-34.909091-60.509091-34.90909-62.836363-6.981818-9.309091-18.618182-9.309091-27.927273-2.327273-9.309091 6.981818-9.309091 18.618182-2.327273 27.927273 0 0 67.490909 83.781818 18.618182 144.290909-69.818182 86.109091 2.327273 200.145455 6.981818 204.8zM914.618182 444.509091c4.654545 4.654545 9.309091 9.309091 16.290909 9.309091 4.654545 0 6.981818 0 11.636364-2.327273 9.309091-4.654545 11.636364-18.618182 6.981818-27.927273 0 0-60.509091-95.418182-9.309091-160.581818 27.927273-34.909091 32.581818-81.454545 13.963636-130.327273-13.963636-34.909091-34.909091-60.509091-34.909091-62.836363-6.981818-9.309091-18.618182-9.309091-27.927272-2.327273-9.309091 6.981818-9.309091 18.618182-2.327273 27.927273 0 0 67.490909 83.781818 18.618182 144.290909-69.818182 86.109091 2.327273 200.145455 6.981818 204.8zM95.418182 451.490909c4.654545 4.654545 9.309091 9.309091 16.290909 9.309091 4.654545 0 6.981818 0 11.636364-2.327273 9.309091-4.654545 11.636364-18.618182 4.654545-27.927272 0 0-60.509091-95.418182-9.309091-160.581819 30.254545-37.236364 34.909091-81.454545 16.290909-132.654545-13.963636-34.909091-34.909091-60.509091-34.909091-60.509091-6.981818-9.309091-18.618182-9.309091-27.927272-4.654545-9.309091 6.981818-9.309091 20.945455-2.327273 27.927272 0 0 67.490909 83.781818 18.618182 144.290909-67.490909 86.109091 4.654545 200.145455 6.981818 207.127273zM965.818182 861.090909c-13.963636-18.618182-34.909091-27.927273-55.854546-30.254545C907.636364 635.345455 765.672727 474.763636 581.818182 442.181818c13.963636-16.290909 23.272727-37.236364 23.272727-60.509091 0-51.2-41.890909-90.763636-90.763636-90.763636-51.2 0-90.763636 41.890909-90.763637 90.763636 0 23.272727 9.309091 44.218182 23.272728 60.509091-186.181818 30.254545-330.472727 193.163636-335.127273 388.654546-20.945455 2.327273-37.236364 11.636364-51.2 27.927272-13.963636 18.618182-23.272727 41.890909-23.272727 67.490909 0 25.6 6.981818 48.872727 23.272727 67.49091 16.290909 18.618182 37.236364 30.254545 60.509091 30.254545h784.290909c23.272727 0 44.218182-11.636364 60.509091-30.254545 13.963636-18.618182 23.272727-41.890909 23.272727-67.49091 0-23.272727-9.309091-46.545455-23.272727-65.163636zM514.327273 335.127273c25.6 0 44.218182 20.945455 44.218182 44.218182 0 25.6-20.945455 44.218182-44.218182 44.218181-25.6 0-44.218182-20.945455-44.218182-44.218181 0-23.272727 18.618182-44.218182 44.218182-44.218182z m414.254545 628.363636c-4.654545 4.654545-11.636364 11.636364-23.272727 11.636364l-786.618182-2.327273c-11.636364 0-20.945455-6.981818-23.272727-13.963636-6.981818-9.309091-11.636364-23.272727-11.636364-37.236364 0-13.963636 4.654545-27.927273 11.636364-37.236364 4.654545-4.654545 11.636364-11.636364 23.272727-11.636363l514.327273 2.327272c13.963636 0 23.272727-9.309091 23.272727-23.272727s-9.309091-23.272727-23.272727-23.272727l-474.763637-2.327273c2.327273-190.836364 160.581818-346.763636 351.418182-346.763636h2.327273c193.163636 0 349.090909 155.927273 349.090909 349.090909h-74.472727c-13.963636 0-23.272727 9.309091-23.272727 23.272727s9.309091 23.272727 23.272727 23.272727h116.363636c11.636364 0 20.945455 6.981818 23.272727 13.963637 6.981818 9.309091 11.636364 23.272727 11.636364 37.236363 2.327273 13.963636-2.327273 27.927273-9.309091 37.236364z" p-id="809"></path></svg>