<?xml version="1.0" standalone="no"?><!DOCTYPE svg PUBLIC "-//W3C//DTD SVG 1.1//EN" "http://www.w3.org/Graphics/SVG/1.1/DTD/svg11.dtd"><svg t="1550320536265" class="icon" style="" viewBox="0 0 1024 1024" version="1.1" xmlns="http://www.w3.org/2000/svg" p-id="2676" xmlns:xlink="http://www.w3.org/1999/xlink" width="200" height="200"><defs><style type="text/css"></style></defs><path d="M914.353764 287.764959l-846.913792 119.025861 46.300512 329.444221 846.914816-119.026884-46.301536-329.443198z m-817.111023 141.485385l794.651499-111.681592 38.95522 277.180904-794.652522 111.681592-38.954197-277.180904z" fill="#AAA9A9" p-id="2677"></path><path d="M338.342892 580.438719c-5.586229 40.029692-7.460925 41.894156-46.059012 48.387033-20.346397 3.39226-41.814338 6.40999-63.391773 8.640798-30.514991 3.220345-31.374568 2.807952-34.133401-16.826224l-9.418511-67.019393 118.331036-16.629749 2.207271 15.70775 25.9183-3.64297c-3.111874-12.643971-5.736655-25.623587-7.502881-38.188764l-5.666047-40.316218c-2.538823-18.063401-3.703345-32.048927-3.833305-40.57409-15.188934 4.003174-45.671179 9.356089-90.437755 15.646351-40.84015 5.739724-75.057463 9.213849-90.200348 9.740852l3.789303 26.965142c17.057491-3.999081 49.897434-9.6815 86.286202-14.795985l68.328201-9.602705 8.314363 59.165518-118.331035 16.629749-1.177826-8.377808c-0.735757-5.236258-0.207731-7.179516 2.675946-9.453303 3.108804-2.572592 1.845021-5.864568-2.830465-4.940522-8.602935 1.474584-19.672038 2.496867-28.458146 2.664689 2.118244 5.574972 5.303796 18.742876 7.952113 37.592177l10.559497 75.135234c5.114484 36.389792 7.277754 38.487569 59.670007 33.260522 19.48375-1.937119 44.317345-5.693676 63.951521-8.453533 56.285934-7.910157 60.781318-12.012591 69.669756-57.044204-10.57587-1.184989-19.202341-5.579065-26.213011-13.670347zM406.892127 557.191248c3.500731 5.91471 6.248308 14.071484 7.724939 22.673396 8.982582-4.465708 16.616446-7.140631 28.511357-9.880022l46.571688-10.549263c-1.595334-5.649674-1.311879-15.032368 0.271176-20.862144-20.125363 4.964058-34.864042 8.370645-52.183499 12.406565 34.112935-72.603575 41.095977-85.59854 43.080168-86.678129 3.706415-2.12336 3.448542-3.955078-0.66208-4.712325-3.848655-0.793062-12.364609-4.402263-19.944237-8.942672-2.336208 8.069793-5.948479 18.455327-11.214413 32.2761l-30.859845 6.473435c25.035186-59.31492 29.167297-67.903529 31.789007-70.1415 2.883677-2.27481 2.291183-4.593622-3.428076-5.3918-6.279007-0.98749-15.056927-4.558829-24.541952-9.365298-6.319939 50.009997-18.209734 83.182514-30.072923 88.053451 3.538593 6.176676 6.216585 11.94096 8.55177 20.956288 5.91471-3.500731 14.595416-6.323009 22.076808-8.175193l19.900236-4.665253c-16.998139 44.301995-25.989931 52.507888-35.570124 56.524364z" fill="#AAA9A9" p-id="2678"></path><path d="M479.650221 457.531458c12.905938-3.148713 31.121811-6.509251 53.598732-9.93528l4.709255 33.510208c-19.932981 2.534729-33.657564 3.66139-45.920865 3.783163l3.27458 23.300682c13.654998-3.521197 30.037107-6.624884 55.431473-10.193153s44.61615-5.469572 57.926294-5.737678l-3.27458-23.300682c-11.036357 3.152806-26.371624 6.109138-46.231951 9.166777l-4.709255-33.509185c25.431206-3.306302 47.270607-5.574972 61.329811-6.216585l-3.385097-24.084535c-13.654998 3.520173-35.273365 7.359618-60.630893 11.190877l-3.86298-27.488051c-0.477884-3.403516 0.085958-5.084808 1.023306-6.017041 4.046153-3.505847 3.415796-6.086625-2.007727-4.791119-3.104711 0.704035-16.529465 2.056845-24.080441 1.515516 2.040473 6.921643 4.853541 19.339464 7.722891 39.759539-22.551622 2.902096-40.72554 4.656043-54.29765 4.962012l3.385097 24.084535zM613.712543 543.340799c-1.434675-10.210549-2.379187-22.624277-2.251274-29.316699-12.120039 3.039219-21.471011 4.886287-54.457286 9.522887-35.865859 5.040806-45.102221 5.804193-57.590649 6.224772 2.040473 6.921643 4.51892 18.853393 5.916756 28.801976l4.746094 33.772174c1.471514 10.471492 2.668783 26.587542 2.711762 40.197515l23.823591-3.348258-3.164062-22.51376 66.49546-9.345856 2.6125 18.587334 23.299659-3.273556c-3.558036-13.916964-6.844895-31.608905-8.316409-42.080398l-3.826142-27.228131z m-82.802868 45.275159l-5.923919-42.148959 66.49546-9.345855 5.923919 42.148959-66.49546 9.345855zM496.184803 584.686463c-50.28629 16.410762-70.374814 21.636786-86.418209 23.356964 5.696746 10.145058 8.261151 16.993023 10.371209 26.307155 11.908214-8.347109 29.121248-15.037485 78.020957-29.919426-1.892093-5.874801-3.258207-13.690814-1.973957-19.744693zM806.962895 497.494635c16.529465-2.055822 41.249473-4.728698 56.84159-5.852289-2.707668-9.764388-5.107321-23.042809-6.984065-36.392861-1.766226-12.5662-3.00852-25.207102-3.060709-35.07689-19.937075 4.40431-40.770566 8.132214-75.851549 13.063527l-3.568268-25.393343c45.028543-6.329149 75.245751-9.774621 100.30038-11.960403l-3.421936-24.346501c-24.723078 4.541433-54.719252 9.558703-99.710956 16.148795l-1.839905-13.090133c-0.588401-4.189416 0.017396-7.478322 2.716878-11.060917 4.499477-5.972015 3.567245-6.90834-3.463891-5.652743-5.460362 1.034563-17.090237 1.867534-24.641213 1.327228 2.674922 7.632841 3.451612 11.261485 6.285146 31.419593-44.542472 5.992481-72.92694 9.181103-99.326193 11.289114l3.495614 24.870434c24.424272-4.76656 54.159504-9.745968 98.664114-16.001439l3.569292 25.393344c-36.651758 5.151323-56.134485 7.088442-76.775594 8.387017 2.669806 9.502421 4.959965 21.994943 6.726192 34.561144 1.803066 12.827143 3.453658 26.478048 3.244904 36.385698 16.607236-3.402493 37.739533-6.906294 56.326866-9.518794-15.288195 31.782867-46.874587 61.58359-79.890538 79.304184 9.784854 5.031597 16.279778 9.458419 23.331381 15.942087 41.800012-33.104979 60.21236-57.850569 74.884524-97.821933l1.570775-0.221034 5.850242 41.62605c2.612501 18.587334 3.703345 32.048927 4.822842 49.511647l24.870434-3.494591c-3.773953-17.356296-6.099928-30.110785-8.749268-48.960085l-5.849218-41.62605 3.403516-0.478907c22.715351 40.056298 57.253982 59.763129 96.680946 66.769706 0.470721-9.94449 2.545986-17.977443 10.200317-29.999244-34.06791 2.65241-70.301136-12.011568-90.65265-39.051411z m-97.570199-4.708232l-4.305049-30.630625 54.453192-7.653307 4.305049 30.630625-54.453192 7.653307z m75.3972-10.595313l-4.305049-30.630624 53.92926-7.578606 4.305049 30.629601-53.92926 7.579629z" fill="#AAA9A9" p-id="2679"></path></svg>