<?xml version="1.0" standalone="no"?><!DOCTYPE svg PUBLIC "-//W3C//DTD SVG 1.1//EN" "http://www.w3.org/Graphics/SVG/1.1/DTD/svg11.dtd"><svg t="1549959284852" class="icon" style="" viewBox="0 0 1024 1024" version="1.1" xmlns="http://www.w3.org/2000/svg" p-id="9826" xmlns:xlink="http://www.w3.org/1999/xlink" width="200" height="200"><defs><style type="text/css"></style></defs><path d="M512 512m-512 0a512 512 0 1 0 1024 0 512 512 0 1 0-1024 0Z" fill="#FFFFFF" p-id="9827"></path><path d="M712.336 173.96l169.704 169.704a32.096 32.096 0 0 1 0 45.256L486.056 784.904a32.096 32.096 0 0 1-45.248 0L271.096 615.192a32.096 32.096 0 0 1 0-45.248l395.984-395.984a32.096 32.096 0 0 1 45.256 0z" fill="#09C45E" p-id="9828"></path><path d="M463.432 807.528c-12.448 0-23.2-5.088-31.68-13.576L262.048 624.248a44.72 44.72 0 0 1 0-63.36l395.976-395.976a44.72 44.72 0 0 1 63.36 0l169.704 169.704c8.48 8.48 13.016 19.8 13.576 31.68 0 12.44-5.088 23.192-13.576 31.68L495.12 793.952c-8.48 8.48-19.8 13.008-31.68 13.576zM689.704 177.36c-4.52 0-9.616 1.704-13.576 5.664L280.16 578.992c-7.36 7.36-7.36 19.8 0 27.152l169.704 169.704c7.36 7.36 19.8 7.36 27.152 0l395.976-395.976c3.4-3.392 5.096-8.48 5.664-13.576 0-5.656-2.264-10.184-5.664-13.576L703.28 183.016a19.304 19.304 0 0 0-13.576-5.664z" fill="#333333" p-id="9829"></path><path d="M712.336 173.96l169.704 169.704a32.096 32.096 0 0 1 0 45.256l-56.568 56.568-214.96-214.96 56.56-56.56a32.096 32.096 0 0 1 45.264 0z" fill="#FFFFFF" p-id="9830"></path><path d="M825.472 463.592L592.4 230.528l65.616-65.616a44.72 44.72 0 0 1 63.36 0l169.704 169.704c8.48 8.48 13.016 19.8 13.576 31.68 0 12.44-5.088 23.192-13.576 31.68l-65.616 65.616zM628.608 230.528l196.864 196.864 47.52-47.52c3.392-3.392 5.088-8.48 5.656-13.576 0-5.656-2.264-10.184-5.664-13.576L703.28 183.016c-7.352-7.36-19.8-7.36-27.152 0l-47.52 47.52zM271.096 615.2l169.712 169.704-177.064 25.456c-9.048 1.128-16.968-4.528-18.104-13.576a6.24 6.24 0 0 1 0-4.528l25.456-177.064z" fill="#333333" p-id="9831"></path><path d="M262.048 823.368c-5.656 0-11.88-1.696-16.968-5.656-5.656-4.528-10.184-11.312-11.32-19.232a18.688 18.688 0 0 1 0-7.92l28.288-202.52 205.912 205.92-201.952 28.84c-1.696 0.568-2.832 0.568-3.96 0.568z m18.104-181.016l-21.496 151.6v1.128c0 1.136 0.56 1.704 1.128 2.264 0.56 0.568 1.136 1.136 2.832 0.568l151.6-21.496L280.16 642.352z" fill="#333333" p-id="9832"></path><path d="M395.552 600.488c-2.264 0-3.96-0.56-5.656-2.264-3.4-3.392-3.4-7.92 0-11.312l237.584-237.592c3.392-3.392 7.92-3.392 11.312 0 3.4 3.4 3.4 7.92 0 11.32L401.208 598.224c-1.696 1.696-3.4 2.264-5.656 2.264z" fill="#333333" p-id="9833"></path><path d="M471.92 676.856c-2.264 0-3.96-0.56-5.664-2.264-3.392-3.392-3.392-7.92 0-11.312L703.848 425.68c3.392-3.392 7.92-3.392 11.312 0s3.392 7.92 0 11.32L477.576 674.592c-1.696 1.696-3.4 2.264-5.656 2.264z" fill="#333333" p-id="9834"></path></svg>