<?xml version="1.0" standalone="no"?><!DOCTYPE svg PUBLIC "-//W3C//DTD SVG 1.1//EN" "http://www.w3.org/Graphics/SVG/1.1/DTD/svg11.dtd"><svg t="1563689583336" class="icon" viewBox="0 0 1024 1024" version="1.1" xmlns="http://www.w3.org/2000/svg" p-id="987" xmlns:xlink="http://www.w3.org/1999/xlink" width="16" height="16"><defs><style type="text/css"></style></defs><path d="M358.869333 651.306667l-22.954666-26.176c-18.922667-22.72-45.290667-60.053333-57.685334-82.346667-12.672-12.650667-37.589333-79.104-37.589333-130.773333 0-148.949333 121.664-270.634667 270.634667-270.634667 148.949333 0 270.634667 121.685333 270.634666 270.634667 0 29.589333-6.826667 59.968-18.197333 89.749333a327.509333 327.509333 0 0 1-18.133333 39.36c-11.989333 21.013333-32.298667 49.344-59.114667 84.202667l-22.570667 25.408c95.317333 20.928 153.258667 61.184 153.258667 110.336 0 78.976-137.429333 127.829333-305.877333 127.829333-165.973333 0-305.898667-49.728-305.898667-126.08 0-50.048 57.856-90.346667 153.493333-111.509333z m38.058667 43.413333c-85.653333 14.762667-140.373333 43.84-140.373333 66.346667 0 34.410667 112.746667 74.901333 254.72 74.901333 143.168 0 254.72-40.256 254.72-74.88 0-21.909333-55.893333-52.544-140.608-66.986667L561.706667 765.866667c-11.904 15.872-31.786667 26.090667-50.432 26.090666-19.178667 0-37.418667-9.109333-50.069334-23.850666l-64.277333-73.365334z m114.346667-502.186667c-120.789333 0-219.477333 98.709333-219.477334 219.477334 0 22.826667 5.418667 46.869333 14.464 70.549333 3.2 8.32 6.613333 16 10.005334 22.826667 2.026667 4.074667 3.562667 6.933333 4.565333 8.618666 10.389333 19.328 33.706667 51.733333 53.632 76.096l125.546667 143.274667c3.328 4.458667 5.888 5.632 11.264 5.632 3.968 0 7.317333-1.813333 11.648-6.101333l124.992-142.592c15.232-18.624 39.722667-53.44 53.888-76.458667 0.853333-1.493333 2.410667-4.458667 4.437333-8.64 3.413333-7.04 6.826667-14.848 10.026667-23.296 9.045333-23.978667 14.464-47.872 14.464-69.909333 0-120.768-98.688-219.456-219.456-219.456z m0 343.786667c-67.861333 0-124.309333-56.448-124.309334-124.309333 0-67.84 56.448-124.309333 124.309334-124.309334 67.84 0 124.309333 56.448 124.309333 124.309334 0 67.84-56.448 124.309333-124.309333 124.309333z m0-197.44c-39.68 0-73.152 33.450667-73.152 73.130667 0 39.68 33.472 73.130667 73.152 73.130666 39.68 0 73.130667-33.450667 73.130666-73.130666 0-39.68-33.450667-73.130667-73.130666-73.130667z" fill="#1392e6" p-id="988"></path></svg>