<?xml version="1.0" standalone="no"?><!DOCTYPE svg PUBLIC "-//W3C//DTD SVG 1.1//EN" "http://www.w3.org/Graphics/SVG/1.1/DTD/svg11.dtd"><svg t="1550859141577" class="icon" style="" viewBox="0 0 1024 1024" version="1.1" xmlns="http://www.w3.org/2000/svg" p-id="12093" xmlns:xlink="http://www.w3.org/1999/xlink" width="16" height="16"><defs><style type="text/css"></style></defs><path d="M249.1 420.6h216.4c14.6 0 26.5-11.9 26.5-26.5s-11.9-26.5-26.5-26.5H249.1c-14.6 0-26.5 11.9-26.5 26.5s11.9 26.5 26.5 26.5zM222.6 576.2c0 14.6 11.9 26.5 26.5 26.5H776c14.6 0 26.5-11.9 26.5-26.5s-11.9-26.5-26.5-26.5H249.1c-14.6 0-26.5 11.9-26.5 26.5z" fill="#4C4C4C" p-id="12094"></path><path d="M953 287.3c-11.2 18.9-26.6 35.6-44.6 48.2l-1.6 1.1v341.9c0 28.1-10.9 54.4-30.8 74.3-19.8 19.8-46.2 30.8-74.3 30.8H588l-78.8 80.6-64.7-65.8-14.5-14.8H222.2c-57.9 0-105-47.1-105-105V260.2c0-57.9 47.1-105 105-105H672l0.9-2.4c6.2-16.2 14.9-31.2 26.1-44.6l5.1-6.1H222.2c-42.2 0-81.9 16.4-111.8 46.3-29.9 29.9-46.3 69.6-46.3 111.8v418.4c0 42.2 16.4 81.9 46.3 111.8 29.9 29.9 69.6 46.3 111.8 46.3h185.6l82.8 84.3 0.1 0.1c5.1 4.7 11.7 7.2 18.5 7.2 6.7 0 13.1-2.4 18.1-6.8l82.9-84.8h191.5c87.2 0 158.1-70.9 158.1-158.1v-403l-6.8 11.7z" fill="#4C4C4C" p-id="12095"></path><path d="M706.5 208c0 62 50.2 112.2 112.2 112.2S930.9 270 930.9 208 880.7 95.8 818.7 95.8c-61.9 0-112.2 50.2-112.2 112.2z m0 0" fill="#4C4C4C" p-id="12096"></path></svg>