<?xml version="1.0" standalone="no"?><!DOCTYPE svg PUBLIC "-//W3C//DTD SVG 1.1//EN" "http://www.w3.org/Graphics/SVG/1.1/DTD/svg11.dtd"><svg t="1563630352530" class="icon" viewBox="0 0 1024 1024" version="1.1" xmlns="http://www.w3.org/2000/svg" p-id="1882" xmlns:xlink="http://www.w3.org/1999/xlink" width="16" height="16"><defs><style type="text/css"></style></defs><path d="M512 512m-512 0a512 512 0 1 0 1024 0 512 512 0 1 0-1024 0Z" fill="#FFFFFF" p-id="1883"></path><path d="M923.2 444.8z m0-0.8c0-2.4-2.4-4-8-5.6-44-10.4-748-168.8-756-169.6-7.2-0.8-11.2 3.2-10.4 10.4 0 0.8 0.8 4 2.4 6.4l242.4 535.2c4 4.8 10.4 7.2 13.6 6.4 6.4-2.4 36-24 92.8-64.8l0.8-0.8c95.2-69.6 92.8-68 99.2-69.6 6.4-1.6 6.4-1.6 29.6 10.4 9.6 4.8 19.2 10.4 41.6 21.6 22.4 12 31.2 16.8 40 21.6 5.6 3.2 10.4 5.6 13.6 7.2 0.8 0.8 2.4 0.8 3.2 1.6 2.4-0.8 4.8-3.2 4.8-5.6 0-1.6 0.8-9.6 8.8-83.2 1.6-17.6 4-36.8 5.6-56 0.8-11.2 0.8-11.2 1.6-18.4 0.8-5.6 0.8-5.6 0.8-7.2l0.8-5.6 4-3.2c1.6-0.8 1.6-0.8 7.2-5.6s12-9.6 19.2-14.4c20-15.2 40-30.4 58.4-44.8 42.4-33.6 77.6-60.8 84-66.4z m-316.8 272z" fill="#D6F1FF" p-id="1884"></path><path d="M404.8 840c-8 0-16-4.8-21.6-11.2l-0.8-1.6-0.8-1.6-241.6-534.4c-1.6-3.2-4-8-4-12 0-7.2 2.4-13.6 6.4-17.6 4.8-4 11.2-6.4 17.6-5.6 11.2 0.8 751.2 168.8 758.4 170.4 15.2 3.2 17.6 12 17.6 16.8v1.6l-1.6 6.4-4 3.2c-7.2 5.6-41.6 32-83.2 64L761.6 584l-8.8 84.8c-6.4 60.8-8 77.6-8 79.2 0 8-5.6 15.2-13.6 17.6l-4 0.8-4-1.6c-0.8 0-2.4-0.8-3.2-1.6l-14.4-7.2c-9.6-4.8-17.6-9.6-40.8-21.6-21.6-11.2-32-16.8-41.6-21.6-9.6-4.8-16.8-8.8-20-9.6h-0.8c-4 0.8-16 9.6-93.6 66.4l-3.2 2.4c-71.2 52-88.8 64-95.2 66.4-0.8 0.8-3.2 1.6-5.6 1.6z m-0.8-26.4s0 0.8 0 0c15.2-8.8 69.6-48 88-61.6l3.2-2.4c93.6-68 93.6-68 101.6-70.4 11.2-3.2 14.4-1.6 39.2 11.2 9.6 4.8 20 10.4 41.6 21.6 22.4 12 31.2 16.8 40 21.6 1.6 0.8 2.4 1.6 4 1.6 0.8-10.4 3.2-30.4 7.2-69.6l10.4-96 94.4-72c26.4-20 50.4-38.4 66.4-50.4-106.4-24-670.4-150.4-736.8-164.8l240.8 531.2z" fill="#333333" p-id="1885"></path><path d="M674.4 562.4c-11.2-7.2-460-243.2-460-243.2l464.8 363.2s5.6-92.8 5.6-101.6c0-8.8 0.8-12-10.4-18.4z" fill="#0072FF" p-id="1886"></path></svg>