<?xml version="1.0" standalone="no"?><!DOCTYPE svg PUBLIC "-//W3C//DTD SVG 1.1//EN" "http://www.w3.org/Graphics/SVG/1.1/DTD/svg11.dtd"><svg t="1550321588979" class="icon" style="" viewBox="0 0 1714 1024" version="1.1" xmlns="http://www.w3.org/2000/svg" p-id="4167" xmlns:xlink="http://www.w3.org/1999/xlink" width="334.765625" height="200"><defs><style type="text/css"></style></defs><path d="M404.576845 271.911415m74.863727-19.765872l193.709894-51.144194q74.863727-19.765872 94.629599 55.097854l86.080373 326.031531q19.765872 74.863727-55.097855 94.629599l-193.709893 51.144195q-74.863727 19.765872-94.629599-55.097855l-86.080373-326.031531q-19.765872-74.863727 55.097854-94.629599Z" fill="#C5EBFF" p-id="4168"></path><path d="M567.284386 252.948003l33.06223-8.730133 8.730133 33.068683-33.062231 8.730133z" fill="#6FD1FF" p-id="4169"></path><path d="M518.452426 526.943819l204.051519-65.201765 11.885368 37.185331L530.32489 564.135602z" fill="#FFFFFF" p-id="4170"></path><path d="M528.324638 567.813485l-13.743668-42.973157L724.413863 458.122243l13.743667 42.973157z m-6.452426-39.037178l10.065784 31.423315L730.543667 496.836799l-10.065784-31.423314z" fill="#6FD1FF" p-id="4171"></path><path d="M550.746818 633.241084l204.057971-65.201765 11.878916 37.185331-204.057971 65.201765z" fill="#FFFFFF" p-id="4172"></path><path d="M560.651292 674.278513l-13.743668-42.973157 209.832893-67.040706 13.743667 42.973157z m-6.452426-38.714556l10.065784 31.423315 198.28305-63.362823-10.065784-31.423315z" fill="#6FD1FF" p-id="4173"></path><path d="M560.973913 744.351859a78.655072 78.655072 0 0 1-75.945054-58.458979L387.145558 314.942911a78.719597 78.719597 0 0 1 55.878008-95.947574l228.803025-60.394707A78.655072 78.655072 0 0 1 767.838689 214.414115l97.947826 370.949968a78.719597 78.719597 0 0 1-55.878008 95.947574L580.718336 742.028986a78.4615 78.4615 0 0 1-19.744423 2.322873zM691.764587 167.763075a66.395463 66.395463 0 0 0-16.96988 2.193825l-228.7385 60.717328a66.65356 66.65356 0 0 0-47.296283 81.171519L496.836799 682.795715a66.524512 66.524512 0 0 0 81.171519 47.296282l228.544927-60.459231a66.65356 66.65356 0 0 0 47.296282-81.171518l-97.818777-370.949969a66.589036 66.589036 0 0 0-64.266163-49.748204z" fill="#6FD1FF" p-id="4174"></path><path d="M445.617442 285.765041l33.06223-8.730132 8.730133 33.06223-33.062231 8.730133zM509.031884 267.465961l33.178374-8.891443 8.891443 33.165469-33.171922 8.897896zM459.135274 342.765772l207.122873-54.68431 9.968999 37.746692-207.122874 54.68431z" fill="#6FD1FF" p-id="4175"></path><path d="M480.221802 427.221575l204.057971-65.201764 11.878916 37.185331-204.057971 65.201764z" fill="#FFFFFF" p-id="4176"></path><path d="M490.384373 468.252552l-13.743667-42.973157 209.832892-67.040706 13.743667 42.973157z m-6.452426-38.714556l10.065785 31.423315 198.283049-63.362823-10.065784-31.423315z" fill="#6FD1FF" p-id="4177"></path><path d="M1112.656333 196.734468v469.091367a72.718841 72.718841 0 0 1-72.460744 72.460743H671.0523a72.718841 72.718841 0 0 1-72.460744-72.460743V179.635539A72.718841 72.718841 0 0 1 671.0523 107.174795h353.85104z" fill="#FFFFFF" p-id="4178"></path><path d="M1040.195589 744.351859H671.0523a78.590548 78.590548 0 0 1-78.526024-78.526024V179.635539A78.590548 78.590548 0 0 1 671.0523 101.109515h356.367486l91.366351 93.173031v471.543289a78.590548 78.590548 0 0 1-78.590548 78.526024zM671.0523 113.175551a66.524512 66.524512 0 0 0-66.459987 66.459988v486.190296a66.524512 66.524512 0 0 0 66.459987 66.459987h369.207813a66.524512 66.524512 0 0 0 66.459988-66.459987V199.250914l-84.462256-86.075363z" fill="#6FD1FF" p-id="4179"></path><path d="M730.608192 309.587398l-6.839572-9.936736 58.394455-39.746944-58.265406-38.520983 6.645998-10.065785 73.364083 48.393195-73.299558 49.877253zM990.189288 309.587398l-73.299559-49.877253 73.364083-48.393195 6.645999 10.065785-58.329931 38.520983 58.394455 39.746944-6.775047 9.936736zM855.591682 396.11443a43.16673 43.16673 0 1 1 43.16673-43.16673 43.231254 43.231254 0 0 1-43.16673 43.16673z m0-74.267423a31.100693 31.100693 0 1 0 31.100694 31.100693 31.100693 31.100693 0 0 0-31.100694-31.100693z" fill="#6FD1FF" p-id="4180"></path><path d="M713.509263 461.86465m-21.293006 0a21.293006 21.293006 0 1 0 42.586011 0 21.293006 21.293006 0 1 0-42.586011 0Z" fill="#C5EBFF" p-id="4181"></path><path d="M713.509263 575.298299m-21.293006 0a21.293006 21.293006 0 1 0 42.586011 0 21.293006 21.293006 0 1 0-42.586011 0Z" fill="#C5EBFF" p-id="4182"></path><path d="M713.509263 676.794959m-21.293006 0a21.293006 21.293006 0 1 0 42.586011 0 21.293006 21.293006 0 1 0-42.586011 0Z" fill="#C5EBFF" p-id="4183"></path><path d="M760.095778 440.50712h259.903718v42.650536H760.095778zM760.095778 554.005293h259.903718v42.650536H760.095778zM760.095778 655.501953h259.903718v42.650536H760.095778z" fill="#C5EBFF" p-id="4184"></path><path d="M260.871582 738.286578h1203.95816v15.614871H260.871582zM95.689477 738.286578h106.529553v15.614871H95.689477zM0 738.286578h55.555388v15.614871H0zM1619.171771 753.965974h-106.529553v-15.614871h106.529553zM1714.861248 753.965974h-55.555388v-15.614871h55.555388z" fill="#57D5FF" p-id="4185"></path><path d="M368.885192 863.528166h61.749717v18.518463h-61.749717zM486.25482 863.528166h217.640328v18.518463H486.25482zM776.420416 863.528166h368.885192v18.518463h-368.885192zM1217.8954 863.528166h134.274984v18.518463h-134.274984z" fill="#62D1FE" p-id="4186"></path><path d="M605.108507 1007.03012h98.786641v16.96988H605.108507zM753.256207 1007.03012h341.13976v16.96988h-341.13976zM1137.627221 1007.03012h16.96988v16.96988h-16.96988z" fill="#BAE6FF" p-id="4187"></path><path d="M313.781474 499.030624a25.809704 25.809704 0 1 1 25.809704-25.809704 25.809704 25.809704 0 0 1-25.809704 25.809704z m0-45.876749a19.873472 19.873472 0 1 0 19.873472 19.873472 19.937996 19.937996 0 0 0-19.873472-19.873472z" fill="#C5EBFF" p-id="4188"></path><path d="M359.593699 645.887839m-16.582735 0a16.582735 16.582735 0 1 0 33.16547 0 16.582735 16.582735 0 1 0-33.16547 0Z" fill="#C5EBFF" p-id="4189"></path><path d="M1186.730183 68.395715a34.197858 34.197858 0 1 1 34.197857-34.197857 34.262382 34.262382 0 0 1-34.197857 34.197857z m0-62.330435a28.132577 28.132577 0 1 0 28.132577 28.132578 28.197101 28.197101 0 0 0-28.132577-28.132578zM1357.203277 250.031506a31.229742 31.229742 0 1 1 31.229741-31.229742 31.294266 31.294266 0 0 1-31.229741 31.229742z m0-56.394203a25.164461 25.164461 0 1 0 25.164461 25.164461 25.228986 25.228986 0 0 0-25.164461-25.228985z" fill="#C5EBFF" p-id="4190"></path><path d="M1202.280529 276.099307m-15.614871 0a15.614871 15.614871 0 1 0 31.229742 0 15.614871 15.614871 0 1 0-31.229742 0Z" fill="#C5EBFF" p-id="4191"></path><path d="M201.651216 568.794253l1.11627-5.962041 50.548305 9.472161-1.11627 5.962042z" fill="#C5EBFF" p-id="4192"></path><path d="M217.420945 595.881537l14.092098-51.942028 5.852351 1.587296-14.092098 51.942029zM1242.995337 135.629994l35.230246 25.358034-35.230246 29.616635v-54.974669zM1301.370435 95.889502l55.019836-15.518084 1.645369 5.839445-55.019837 15.518085z" fill="#C5EBFF" p-id="4193"></path><path d="M1316.301348 66.530964l5.671683-2.15511 19.750876 51.922672-5.66523 2.15511z" fill="#C5EBFF" p-id="4194"></path><path d="M1021.483554 116.466289l-2.193825 96.65734 85.688217-11.485318-83.494392-85.172022z" fill="#FFFFFF" p-id="4195"></path><path d="M1013.030876 220.027725l2.774543-118.014871 101.94833 104.013107z m14.195337-89.108002L1025.484058 206.477631l66.782609-8.968872z" fill="#6FD1FF" p-id="4196"></path></svg>