<?xml version="1.0" encoding="utf-8"?>
<!-- Generator: Adobe Illustrator 23.0.4, SVG Export Plug-In . SVG Version: 6.00 Build 0)  -->
<svg version="1.1" id="图层_1" xmlns="http://www.w3.org/2000/svg" xmlns:xlink="http://www.w3.org/1999/xlink" x="0px" y="0px"
	 viewBox="0 0 200 200" style="enable-background:new 0 0 200 200;" xml:space="preserve">
<style type="text/css">
	.st0{fill:#FFFFFF;}
	.st1{fill:#E6ED9A;}
	.st2{fill:#333333;}
	.st3{fill:#4AABFF;}
</style>
<path class="st0" d="M0,100c0,55.2,44.8,100,100,100s100-44.8,100-100S155.2,0,100,0S0,44.8,0,100z"/>
<path class="st1" d="M24.8,100c0,41.5,33.6,75.2,75.2,75.2s75.2-33.6,75.2-75.2c0,0,0,0,0,0c0-41.5-33.6-75.2-75.2-75.2
	C58.5,24.8,24.8,58.5,24.8,100C24.8,100,24.8,100,24.8,100z"/>
<path class="st2" d="M100,178c-20,0-39.8-7.7-55.2-22.8c-30.3-30.3-30.3-79.8,0-110.2s79.8-30.3,110.2,0s30.3,79.8,0,110.2
	C140,170.3,120,178,100,178z M100,27.7c-18.6,0-37,7-51.2,21.2c-28.3,28.3-28.3,74.2,0,102.5s74.2,28.3,102.5,0s28.3-74.2,0-102.5
	C137.2,34.7,118.6,27.7,100,27.7z"/>
<path class="st3" d="M120,143.6c-5.6,0-12.8-3.7-17.9-6.9c-6.8-4.2-14.1-10-20.7-16.3l-2.1-2.1C73,111.8,67.1,104.4,63,97.6
	c-3.2-5.1-6.9-12.3-6.9-17.9c0-6,4.3-12.4,6.2-14.9c1.4-1.9,6.5-8.2,10.7-8.2c1.7,0,3.7,1.2,6.2,3.7c2.2,2.2,4.2,5.1,5.7,7.1
	c1.8,2.7,3.6,5.4,4.8,7.8c2.1,3.8,2.2,5.5,2.2,6.4c0,1.8-0.9,3.5-2.8,4.7c-1.2,0.9-2.7,1.5-4.2,2.2c-1,0.4-2.6,1.1-3.2,1.6
	c0.2,0.8,1.1,3,3.6,6.6c2.4,3.5,5,6.7,7.9,9.7c2.7,2.7,6.3,5.6,9.7,7.9c3.6,2.4,5.7,3.3,6.6,3.6c0.5-0.6,1.2-2.2,1.6-3.2
	c0.6-1.4,1.2-2.9,2.2-4.2c1.2-1.9,2.8-2.9,4.7-2.9c0.9,0,2.5,0.3,6.4,2.3c2.4,1.3,5.2,3,7.8,4.8c2,1.3,4.8,3.5,7.1,5.7
	c2.6,2.5,3.7,4.4,3.7,6.2c0,4.2-6.3,9.3-8.2,10.7C132.4,139.3,126,143.6,120,143.6L120,143.6z M85,116.7
	c6.3,6.1,13.3,11.7,19.8,15.6c6.3,3.8,11.8,6.1,15.2,6.1c3,0,7.3-1.8,11.5-4.9c1.7-1.2,3.3-2.7,4.7-4.2c1.2-1.3,1.5-2.2,1.7-2.5
	c-0.5-0.9-3.1-3.8-9.1-8c-2.2-1.6-4.5-3-6.9-4.2c-2.6-1.3-3.7-1.6-3.9-1.7c-0.1,0.1-0.3,0.3-0.8,1.1c-0.5,0.9-1,1.9-1.3,2.9
	c-0.6,1.3-1.2,2.6-1.8,3.7c-1.2,1.7-2.6,2.6-4.2,2.6h-0.1c-0.8,0-3.2-0.1-9.7-4.5c-3.6-2.5-7.5-5.7-10.4-8.5l-0.1-0.1
	c-2.8-2.9-6.1-6.8-8.5-10.4c-4.4-6.6-4.5-8.9-4.5-9.7c-0.1-1.7,0.8-3.1,2.6-4.2c1.1-0.7,2.4-1.2,3.7-1.8c1.1-0.4,2.2-0.9,2.9-1.4
	c0.7-0.4,1-0.7,1.1-0.7c-0.1-0.2-0.3-1.3-1.7-4c-1.3-2.4-2.7-4.6-4.2-6.8c-4.2-6.1-7.1-8.7-8-9.1c-0.3,0.1-1.2,0.5-2.5,1.7
	c-1.4,1.2-2.9,2.8-4.2,4.7c-3.1,4.2-4.9,8.5-4.9,11.6c0,3.3,2.2,8.9,6.1,15.2c4,6.5,9.6,13.5,15.6,19.7L85,116.7L85,116.7z"/>
<path class="st3" d="M115.6,98.3c-0.9,0-1.7-0.6-1.9-1.5c-0.4-2.7-1.9-4.9-4.2-6.4c-2.3-1.6-5.2-2.1-8-1.6c-1,0.2-2-0.5-2.2-1.6
	c0,0,0,0,0,0c-0.2-1,0.5-2,1.5-2.2c3.8-0.7,7.7,0.1,10.7,2.2c3.1,2,5.3,5.2,5.9,8.9c0.2,1-0.5,2-1.5,2.2L115.6,98.3z M126.9,93.4
	c-0.9,0-1.7-0.7-1.9-1.6c-0.8-5.1-3.8-9.4-8.2-12.4c-4.4-2.9-9.9-4-15.3-3.1c-1,0.2-2-0.5-2.2-1.5s0.5-2,1.5-2.2
	c6.4-1.2,12.8,0.2,18.1,3.7c5.3,3.5,8.8,8.7,9.9,14.8c0.2,1-0.5,2-1.5,2.2H126.9z"/>
<path class="st3" d="M142,92c-0.8,0-1.7-0.7-1.8-1.6c-1.5-8.7-6.5-16.1-14.1-21.1c-7.6-5-16.8-6.9-26-5.2c-1.1,0.2-2-0.5-2.2-1.6
	c-0.2-1,0.6-2,1.6-2.2c10.2-1.7,20.3,0.3,28.7,5.8c8.4,5.6,14,13.9,15.7,23.6c0.2,1-0.5,2-1.6,2.2c0,0,0,0,0,0H142z"/>
</svg>
