<?xml version="1.0" standalone="no"?><!DOCTYPE svg PUBLIC "-//W3C//DTD SVG 1.1//EN" "http://www.w3.org/Graphics/SVG/1.1/DTD/svg11.dtd"><svg t="1550637924080" class="icon" style="" viewBox="0 0 1024 1024" version="1.1" xmlns="http://www.w3.org/2000/svg" p-id="2846" xmlns:xlink="http://www.w3.org/1999/xlink" width="16" height="16"><defs><style type="text/css"></style></defs><path d="M81 418.15c-24.3 106-6.63 214.28 50.81 307.06 119.29 190 368.92 249.63 561.1 132.54C843.14 765 916 586 874.07 415.95l70.69-33.14c6.63-2.21 8.84-8.84 8.84-15.46s-2.21-11-6.63-15.46h-2.21L761.41 234.8c-4.42-2.21-11-4.42-17.67 0-4.42 2.21-8.84 8.84-8.84 13.25l-15.47 214.29c0 6.63 2.21 11 6.63 15.46s11 4.42 17.67 2.21l64.06-30.93c26.51 137-33.14 276.13-154.64 351.24-159.04 97.2-366.7 48.6-466.15-108.24-48.6-77.32-61.85-167.89-42-256.25S220.18 272.36 295.29 226s163.47-61.85 251.83-42c17.67 4.42 37.55-6.63 42-26.51 2.21-13.25-2.21-26.51-13.25-35.35l-13.25-6.63c-103.83-22.09-212.07-4.42-302.64 50.81S105.31 312.12 81 418.15z" fill="#231815" p-id="2847"></path></svg>