<?xml version="1.0" standalone="no"?><!DOCTYPE svg PUBLIC "-//W3C//DTD SVG 1.1//EN" "http://www.w3.org/Graphics/SVG/1.1/DTD/svg11.dtd"><svg t="1549735754636" class="icon" style="" viewBox="0 0 1024 1024" version="1.1" xmlns="http://www.w3.org/2000/svg" p-id="1367" xmlns:xlink="http://www.w3.org/1999/xlink" width="200" height="200"><defs><style type="text/css"></style></defs><path d="M512 512m-512 0a512 512 0 1 0 1024 0 512 512 0 1 0-1024 0Z" fill="#FFFFFF" p-id="1368"></path><path d="M176 224h672c17.6 0 32 14.4 32 32v144H144V256c0-17.6 14.4-32 32-32z" fill="#09C45E" p-id="1369"></path><path d="M891.2 555.2H132.8V388.8h759.2v166.4z m-736-22.4h712.8V411.2H155.2v121.6z" fill="#333333" p-id="1370"></path><path d="M891.2 699.2H132.8V532.8h759.2v166.4z m-736-22.4h712.8V555.2H155.2v121.6z" fill="#333333" p-id="1371"></path><path d="M598.4 827.2H426.4V388h172v439.2z m-148.8-22.4h125.6V411.2H449.6v393.6z" fill="#333333" p-id="1372"></path><path d="M747.2 827.2H575.2V388h172v439.2z m-148.8-22.4h125.6V411.2H598.4v393.6zM449.6 827.2H277.6V388h172v439.2z m-148.8-22.4h125.6V411.2H300.8v393.6z" fill="#333333" p-id="1373"></path><path d="M848 827.2H176c-24 0-43.2-19.2-43.2-43.2V256c0-24 19.2-43.2 43.2-43.2h672c24 0 43.2 19.2 43.2 43.2v528c0 24-19.2 43.2-43.2 43.2z m-672-592c-11.2 0-20.8 9.6-20.8 20.8v528c0 11.2 8.8 20.8 20.8 20.8h672c11.2 0 20.8-8.8 20.8-20.8V256c0-11.2-8.8-20.8-20.8-20.8H176z" fill="#333333" p-id="1374"></path></svg>