<?xml version="1.0" standalone="no"?><!DOCTYPE svg PUBLIC "-//W3C//DTD SVG 1.1//EN" "http://www.w3.org/Graphics/SVG/1.1/DTD/svg11.dtd"><svg t="1549784225177" class="icon" style="" viewBox="0 0 1024 1024" version="1.1" xmlns="http://www.w3.org/2000/svg" p-id="975" xmlns:xlink="http://www.w3.org/1999/xlink" width="200" height="200"><defs><style type="text/css"></style></defs><path d="M512 512m-512 0a512 512 0 1 0 1024 0 512 512 0 1 0-1024 0Z" fill="#FFFFFF" p-id="976"></path><path d="M512 512m-384.8 0a384.8 384.8 0 1 0 769.6 0 384.8 384.8 0 1 0-769.6 0Z" fill="#FFB900" p-id="977"></path><path d="M512 911.2c-102.4 0-204-39.2-282.4-116.8-155.2-155.2-155.2-408.8 0-564s408.8-155.2 564 0 155.2 408.8 0 564c-76.8 77.6-179.2 116.8-281.6 116.8z m0-769.6c-95.2 0-189.6 36-262.4 108.8-144.8 144.8-144.8 380 0 524.8 144.8 144.8 380 144.8 524.8 0 144.8-144.8 144.8-380 0-524.8-72-72.8-167.2-108.8-262.4-108.8z" fill="#333333" p-id="978"></path><path d="M558.4 622.4H461.6l-20.8 103.2h-78.4L444.8 312h129.6l84 414.4h-78.4l-21.6-104z m-50.4-233.6l-31.2 157.6h65.6l-32-157.6h-2.4z" fill="#FF7400" p-id="979"></path><path d="M675.2 740H568l-20.8-103.2h-73.6l-20.8 103.2H344.8l88-442.4h152.8l89.6 442.4zM591.2 712h49.6l-78.4-386.4H456L379.2 712h49.6l20.8-103.2h120L591.2 712zM560 560H460l36.8-185.6h24.8L560 560z m-65.6-28h31.2l-16-76.8-15.2 76.8z" fill="#333333" p-id="980"></path></svg>