<?xml version="1.0" standalone="no"?><!DOCTYPE svg PUBLIC "-//W3C//DTD SVG 1.1//EN" "http://www.w3.org/Graphics/SVG/1.1/DTD/svg11.dtd"><svg t="1550519064351" class="icon" style="" viewBox="0 0 1024 1024" version="1.1" xmlns="http://www.w3.org/2000/svg" p-id="1090" xmlns:xlink="http://www.w3.org/1999/xlink" width="200" height="200"><defs><style type="text/css"></style></defs><path d="M512 512m-512 0a512 512 0 1 0 1024 0 512 512 0 1 0-1024 0Z" fill="#FFFFFF" p-id="1091"></path><path d="M930.4 764.8H109.6l39.2-104c11.2-29.6 40-49.6 72-49.6h599.2c32 0 60.8 20 72 49.6l38.4 104z m-784-25.6h747.2l-25.6-69.6c-7.2-20-26.4-33.6-48-33.6h-600c-21.6 0-40.8 13.6-48 33.6l-25.6 69.6z" fill="#333333" p-id="1092"></path><path d="M555.2 98.4l256 207.2c13.6 11.2 16 31.2 4.8 44.8L548 681.6c-11.2 13.6-31.2 16-44.8 4.8l-256-207.2c-13.6-11.2-16-31.2-4.8-44.8l267.2-331.2c11.2-14.4 32-16 45.6-4.8z" fill="#09C45E" p-id="1093"></path><path d="M523.2 705.6c-9.6 0-20-3.2-28-9.6l-256-207.2c-9.6-7.2-15.2-18.4-16-30.4-1.6-12 2.4-23.2 9.6-32.8l267.2-330.4c7.2-9.6 18.4-15.2 30.4-16 12-1.6 23.2 2.4 32.8 9.6l256 207.2c9.6 7.2 15.2 18.4 16 30.4 1.6 12-2.4 23.2-9.6 32.8L557.6 689.6c-8.8 10.4-21.6 16-34.4 16zM535.2 104h-2.4c-4.8 0.8-9.6 3.2-12.8 7.2L252 441.6c-3.2 4-4.8 8.8-4 14.4 0.8 4.8 3.2 9.6 7.2 12.8l256 207.2c8 6.4 20 5.6 27.2-3.2l268-330.4c3.2-4 4.8-8.8 4-14.4s-3.2-9.6-7.2-12.8l-256-207.2c-4-2.4-8-4-12-4z" fill="#333333" p-id="1094"></path><path d="M512 460.8c-6.4 0-12.8-2.4-18.4-6.4L440 410.4c-5.6-4.8-6.4-12.8-1.6-17.6 4.8-5.6 12.8-6.4 17.6-1.6l54.4 43.2c1.6 0.8 3.2 0.8 4.8-0.8L605.6 328c4.8-5.6 12.8-5.6 18.4-1.6 5.6 4.8 5.6 12.8 1.6 18.4L533.6 450.4c-5.6 6.4-13.6 10.4-21.6 10.4z" fill="#FFFFFF" p-id="1095"></path></svg>