<?xml version="1.0" standalone="no"?><!DOCTYPE svg PUBLIC "-//W3C//DTD SVG 1.1//EN" "http://www.w3.org/Graphics/SVG/1.1/DTD/svg11.dtd"><svg t="1550857082142" class="icon" style="" viewBox="0 0 1226 1024" version="1.1" xmlns="http://www.w3.org/2000/svg" p-id="11744" data-spm-anchor-id="a313x.7781069.0.i16" xmlns:xlink="http://www.w3.org/1999/xlink" width="19.15625" height="16"><defs><style type="text/css"></style></defs><path d="M5.069307 5.069307h1216.633663v1013.861386z" p-id="11745" data-spm-anchor-id="a313x.7781069.0.i17" class="" fill="#8a8a8a"></path><path d="M837.185901 294.121188v-22.203564h-122.271683v-52.315248H816.158416v-22.203564h-101.284753v-49.577822H691.453465v49.577822h-98.233029v22.203564H691.453465v52.315248H571.361584v22.203564h107.357782a302.718733 302.718733 0 0 1-115.580198 95.809901 119.493703 119.493703 0 0 1 16.424555 18.553663 332.647921 332.647921 0 0 0 111.920158-96.722376v113.755248h23.420198V310.545743a337.666535 337.666535 0 0 0 112.842772 98.243168 100.919762 100.919762 0 0 1 16.424555-19.16198 306.125307 306.125307 0 0 1-116.188515-95.505743h109.192871z m281.346535-11.862178a478.319525 478.319525 0 0 0 21.291089-57.181782l-14.599604-3.95406-3.345743 0.912476h-58.398416v-27.070099h62.960792v-19.161981h-62.960792v-27.982574H1041.235644v27.982574h-62.352476v19.161981h62.352476v27.070099h-73.596198v19.770297h146.290059c-4.258218 13.078812-9.428911 26.157624-13.38297 35.890693z m-73.302179 0a235.621386 235.621386 0 0 0-44.10297-28.89505l-10.341386 11.253862a213.255604 213.255604 0 0 1 43.494653 30.72z m-76.637782 10.037228a216.641901 216.641901 0 0 1 44.701149 31.328316l10.645544-13.078811a198.270733 198.270733 0 0 0-44.407128-30.111684z m-18.249505-93.072476a381.607287 381.607287 0 0 0-47.448713-44.711287l-14.295445 14.599604a445.87596 445.87596 0 0 1 46.536238 46.232079z m-15.512079 170.632872V242.414257h-65.698218v21.899406h44.711287v110.409505a37.675089 37.675089 0 0 1-14.295445 28.590891 78.807446 78.807446 0 0 1 11.862178 16.120396v-0.304158c4.258218-6.387327 11.862178-12.774653 59.300753-52.011089a121.825584 121.825584 0 0 1-8.810456-18.857822z m207.730059-24.332674V325.449505H1068.609901a178.54099 178.54099 0 0 0 3.041584-35.282376v-36.49901h-21.899406v35.890693a136.587406 136.587406 0 0 1-3.954059 35.890693h-84.241743v20.074455h76.941941c-11.862178 23.11604-35.586535 45.927921-82.122772 63.873268a64.887129 64.887129 0 0 1 13.981148 17.641188c55.356832-22.507723 80.906139-51.706931 92.16-81.514456h79.993663z m-79.689504 23.724357a457.150099 457.150099 0 0 1 69.348118 57.181782l13.991287-14.599604a435.058059 435.058059 0 0 0-69.652277-55.356832z" p-id="11746" data-spm-anchor-id="a313x.7781069.0.i18" class="selected" fill="#ffffff"></path></svg>