<svg xmlns="http://www.w3.org/2000/svg" xmlns:xlink="http://www.w3.org/1999/xlink" viewBox="0 0 108.77 108.77"><defs><style>.cls-1{fill:#fff;}.cls-2{fill:url(#未命名的渐变_6);}.cls-3{fill:url(#未命名的渐变_9);}</style><linearGradient id="未命名的渐变_6" x1="21.93" y1="85.24" x2="77.06" y2="30.11" gradientUnits="userSpaceOnUse"><stop offset="0" stop-color="#00c4ff"/><stop offset="1" stop-color="#0072ff"/></linearGradient><linearGradient id="未命名的渐变_9" x1="65.52" y1="57.7" x2="42.22" y2="44.24" gradientUnits="userSpaceOnUse"><stop offset="0" stop-color="#00c6ff"/><stop offset="0.23" stop-color="#00abff"/><stop offset="0.55" stop-color="#008cff"/><stop offset="0.81" stop-color="#0079ff"/><stop offset="1" stop-color="#0072ff"/></linearGradient></defs><title>资源 2</title><g id="图层_2" data-name="图层 2"><g id="图层_1-2" data-name="图层 1"><circle class="cls-1" cx="54.38" cy="54.38" r="54.38"/><path class="cls-1" d="M54.81,26.06c-18.25,0-33,11.78-33,26.3a23,23,0,0,0,7,16.17,2.42,2.42,0,0,1,.09,3.25l-7.55,8.59a1.38,1.38,0,0,0,1.25,2.3l20.84-5.35a2.07,2.07,0,0,1,1,0,40.53,40.53,0,0,0,10.42,1.34c18.24,0,33-11.78,33-26.31S73.05,26.06,54.81,26.06Z"/><path class="cls-2" d="M22.2,84.35a2.85,2.85,0,0,1-2.45-1.41,3.08,3.08,0,0,1,.3-3.65L27.6,70.7a.78.78,0,0,0,0-1,24.52,24.52,0,0,1-7.45-17.32c0-15.4,15.56-27.94,34.68-27.94S89.48,37,89.48,52.36s-15.56,28-34.67,28A42.18,42.18,0,0,1,44,78.91a.34.34,0,0,0-.2,0L22.93,84.25A3.06,3.06,0,0,1,22.2,84.35ZM54.81,27.69c-17.32,0-31.41,11.07-31.41,24.67a21.3,21.3,0,0,0,6.51,15,4,4,0,0,1,.15,5.47l-7,8L43,75.74a3.63,3.63,0,0,1,1.85,0,39.23,39.23,0,0,0,10,1.29C72.12,77,86.21,66,86.21,52.36S72.12,27.69,54.81,27.69Z"/><path class="cls-3" d="M55.59,64.29a1.53,1.53,0,0,1-2.44,0q-3-4-9.42-8c-2.49-1.55-3.74-3.53-3.74-6a8.62,8.62,0,0,1,.53-3,7.6,7.6,0,0,1,1.59-2.5,8.12,8.12,0,0,1,2.33-1.7,6.76,6.76,0,0,1,5.48,0,7.63,7.63,0,0,1,2.35,1.7,7.32,7.32,0,0,1,1.57,2.5,4.8,4.8,0,0,1,.53,2.26,4.48,4.48,0,0,1,.56-2.26,7.45,7.45,0,0,1,1.56-2.5,7.75,7.75,0,0,1,2.35-1.7,6.79,6.79,0,0,1,5.49,0,8.08,8.08,0,0,1,2.32,1.7,7.29,7.29,0,0,1,1.59,2.5,8.4,8.4,0,0,1,.53,3c0,2.46-1.24,4.45-3.74,6A34.42,34.42,0,0,0,55.59,64.29Z"/></g></g></svg>