<?xml version="1.0" standalone="no"?><!DOCTYPE svg PUBLIC "-//W3C//DTD SVG 1.1//EN" "http://www.w3.org/Graphics/SVG/1.1/DTD/svg11.dtd"><svg t="1549996630563" class="icon" style="" viewBox="0 0 1024 1024" version="1.1" xmlns="http://www.w3.org/2000/svg" p-id="1074" xmlns:xlink="http://www.w3.org/1999/xlink" width="200" height="200"><defs><style type="text/css"></style></defs><path d="M512 512m-512 0a512 512 0 1 0 1024 0 512 512 0 1 0-1024 0Z" fill="#FFFFFF" p-id="1075"></path><path d="M196.8 260.8h614.4c17.6 0 32 14.4 32 32v454.4c0 17.6-14.4 32-32 32H196.8c-17.6 0-32-14.4-32-32V292.8c0-17.6 14.4-32 32-32z" fill="#D6F1FF" p-id="1076"></path><path d="M811.2 792H196.8c-24.8 0-44.8-20-44.8-44.8V292.8c0-24.8 20-44.8 44.8-44.8h614.4c24.8 0 44.8 20 44.8 44.8v454.4c0 24.8-20 44.8-44.8 44.8zM196.8 273.6c-10.4 0-19.2 8.8-19.2 19.2v454.4c0 10.4 8.8 19.2 19.2 19.2h614.4c10.4 0 19.2-8.8 19.2-19.2V292.8c0-10.4-8.8-19.2-19.2-19.2H196.8z" fill="#333333" p-id="1077"></path><path d="M196.8 260.8h614.4c17.6 0 32 14.4 32 32v86.4H164.8V292.8c0-17.6 14.4-32 32-32z" fill="#0072FF" p-id="1078"></path><path d="M856 392H152V292.8c0-24.8 20-44.8 44.8-44.8h614.4c24.8 0 44.8 20 44.8 44.8V392z m-678.4-25.6h652.8v-73.6c0-10.4-8.8-19.2-19.2-19.2H196.8c-10.4 0-19.2 8.8-19.2 19.2v73.6z" fill="#333333" p-id="1079"></path><path d="M811.2 792H196.8c-24.8 0-44.8-20-44.8-44.8V292.8c0-24.8 20-44.8 44.8-44.8h614.4c24.8 0 44.8 20 44.8 44.8v454.4c0 24.8-20 44.8-44.8 44.8zM196.8 273.6c-10.4 0-19.2 8.8-19.2 19.2v454.4c0 10.4 8.8 19.2 19.2 19.2h614.4c10.4 0 19.2-8.8 19.2-19.2V292.8c0-10.4-8.8-19.2-19.2-19.2H196.8z" fill="#333333" p-id="1080"></path><path d="M324.8 302.4c-7.2 0-12.8-5.6-12.8-12.8v-75.2c0-7.2 5.6-12.8 12.8-12.8s12.8 5.6 12.8 12.8v75.2c0 6.4-5.6 12.8-12.8 12.8zM500.8 302.4c-7.2 0-12.8-5.6-12.8-12.8v-75.2c0-7.2 5.6-12.8 12.8-12.8s12.8 5.6 12.8 12.8v75.2c0 6.4-5.6 12.8-12.8 12.8zM676.8 302.4c-7.2 0-12.8-5.6-12.8-12.8v-75.2c0-7.2 5.6-12.8 12.8-12.8s12.8 5.6 12.8 12.8v75.2c0 6.4-5.6 12.8-12.8 12.8z" fill="#333333" p-id="1081"></path><path d="M784 720m-107.2 0a107.2 107.2 0 1 0 214.4 0 107.2 107.2 0 1 0-214.4 0Z" fill="#D6F1FF" p-id="1082"></path><path d="M784 840c-66.4 0-120-53.6-120-120s53.6-120 120-120 120 53.6 120 120-53.6 120-120 120z m0-214.4c-52 0-94.4 42.4-94.4 94.4S732 814.4 784 814.4 878.4 772 878.4 720 836 625.6 784 625.6z" fill="#333333" p-id="1083"></path><path d="M772.8 773.6c-3.2 0-6.4-1.6-8.8-4l-36.8-36.8c-4.8-4.8-4.8-12.8 0-18.4 4.8-4.8 12.8-4.8 18.4 0l28 28 56-56c4.8-4.8 12.8-4.8 18.4 0 4.8 4.8 4.8 12.8 0 18.4l-64.8 64.8c-4 3.2-7.2 4-10.4 4z" fill="#0072FF" p-id="1084"></path><path d="M515.2 642.4h16.8v25.6h-62.4v-25.6h20.8V492.8h-20.8v-25.6h25.6l20 20v155.2z" fill="#0072FF" p-id="1085"></path></svg>